0
SECTION
2
HEADER
9
$INSUNITS
70
4
9
$ACADVER
1
AC1014
9
$HANDSEED
5
FFFF
0
ENDSEC
0
SECTION
2
TABLES
0
TABLE
2
VPORT
5
8
100
AcDbSymbolTable
0
ENDTAB
0
TABLE
2
LTYPE
5
5
100
AcDbSymbolTable
0
LTYPE
5
14
100
AcDbSymbolTableRecord
100
AcDbLinetypeTableRecord
2
BYBLOCK
70
0
0
LTYPE
5
15
100
AcDbSymbolTableRecord
100
AcDbLinetypeTableRecord
2
BYLAYER
70
0
0
LTYPE
5
16
100
AcDbSymbolTableRecord
100
AcDbLinetypeTableRecord
2
DASHED
70
0
3
Dashed __ __ __ __ __ __ __ __ __ __ __ __ __ _
72
65
73
2
40
0.75
49
0.5
74
0
49
-0.25
74
0
0
ENDTAB
0
TABLE
2
LAYER
5
2
100
AcDbSymbolTable
70
3
0
LAYER
5
50
100
AcDbSymbolTableRecord
100
AcDbLayerTableRecord
2
1
70
0
62
7
6
DASHED
0
LAYER
5
51
100
AcDbSymbolTableRecord
100
AcDbLayerTableRecord
2
0
70
0
62
7
6
CONTINUOUS
0
ENDTAB
0
TABLE
2
STYLE
5
3
100
AcDbSymbolTable
70
1
0
STYLE
5
11
100
AcDbSymbolTableRecord
100
AcDbTextStyleTableRecord
2
STANDARD
70
0
0
ENDTAB
0
TABLE
2
VIEW
5
6
100
AcDbSymbolTable
70
0
0
ENDTAB
0
TABLE
2
UCS
5
7
100
AcDbSymbolTable
70
0
0
ENDTAB
0
TABLE
2
APPID
5
9
100
AcDbSymbolTable
70
2
0
APPID
5
12
100
AcDbSymbolTableRecord
100
AcDbRegAppTableRecord
2
ACAD
70
0
0
ENDTAB
0
TABLE
2
DIMSTYLE
5
A
100
AcDbSymbolTable
70
1
0
ENDTAB
0
TABLE
2
BLOCK_RECORD
5
1
100
AcDbSymbolTable
70
1
0
BLOCK_RECORD
5
1F
100
AcDbSymbolTableRecord
100
AcDbBlockTableRecord
2
*MODEL_SPACE
0
BLOCK_RECORD
5
1B
100
AcDbSymbolTableRecord
100
AcDbBlockTableRecord
2
*PAPER_SPACE
0
ENDTAB
0
ENDSEC
0
SECTION
2
BLOCKS
0
BLOCK
5
20
100
AcDbEntity
100
AcDbBlockBegin
2
*MODEL_SPACE
0
ENDBLK
5
21
100
AcDbEntity
100
AcDbBlockEnd
0
BLOCK
5
1C
100
AcDbEntity
100
AcDbBlockBegin
2
*PAPER_SPACE
0
ENDBLK
5
1D
100
AcDbEntity
100
AcDbBlockEnd
0
ENDSEC
0
SECTION
2
ENTITIES
0
CIRCLE
5
100
100
AcDbEntity
8
0
100
AcDbCircle
10
260.60562880796181
20
2060.0401650900931
30
0
40
1.4999999999999858
210
0
220
-0
230
1
0
CIRCLE
5
101
100
AcDbEntity
8
0
100
AcDbCircle
10
213.38576463595058
20
2184.2858296737923
30
0
40
1.9999999999998863
210
0
220
-0
230
1
0
CIRCLE
5
102
100
AcDbEntity
8
0
100
AcDbCircle
10
228.34483721929149
20
1647.8209559337051
30
0
40
1.4999999999999858
210
0
220
-0
230
1
0
CIRCLE
5
103
100
AcDbEntity
8
0
100
AcDbCircle
10
228.60562833112468
20
2060.0401650900931
30
0
40
1.4999999999999858
210
0
220
-0
230
1
0
CIRCLE
5
104
100
AcDbEntity
8
0
100
AcDbCircle
10
212.48576336935196
20
2128.4101712367001
30
0
40
2.0000000000000284
210
0
220
-0
230
1
0
CIRCLE
5
105
100
AcDbEntity
8
0
100
AcDbCircle
10
260.34483769612859
20
1647.8209559337051
30
0
40
1.4999999999999858
210
0
220
-0
230
1
0
CIRCLE
5
106
100
AcDbEntity
8
0
100
AcDbCircle
10
109.84483769612862
20
1647.8209559337051
30
0
40
1.4999999999999858
210
0
220
-0
230
1
0
CIRCLE
5
107
100
AcDbEntity
8
0
100
AcDbCircle
10
77.844837219291492
20
1647.8209559337051
30
0
40
1.4999999999999858
210
0
220
-0
230
1
0
LWPOLYLINE
5
108
100
AcDbEntity
8
0
100
AcDbPolyline
90
4
70
1
43
0.0
10
186.48563394886352
20
1679.1449504674911
10
181.48563394886355
20
1679.1449504674911
10
181.48563394886355
20
1688.5123370169113
10
186.48563394886355
20
1688.5123370169113
0
LWPOLYLINE
5
109
100
AcDbEntity
8
0
100
AcDbPolyline
90
4
70
1
43
0.0
10
186.48563394886355
20
1940.4101773686502
10
181.48563394886352
20
1940.4101773686502
10
181.48563394886355
20
1949.7775639180704
10
186.48563394886352
20
1949.7775639180704
0
LWPOLYLINE
5
110
100
AcDbEntity
8
0
100
AcDbPolyline
90
4
70
1
43
0.0
10
181.48563394886352
20
1660.4101773686502
10
181.48563394886355
20
1669.7775639180704
10
186.48563394886352
20
1669.7775639180704
10
186.48563394886355
20
1660.4101773686502
0
LWPOLYLINE
5
111
100
AcDbEntity
8
0
100
AcDbPolyline
90
4
70
1
43
0.0
10
186.48563394886355
20
1968.5123370169113
10
186.48563394886352
20
1959.1449504674911
10
181.48563394886355
20
1959.1449504674911
10
181.48563394886355
20
1968.5123370169113
0
LWPOLYLINE
5
112
100
AcDbEntity
8
0
100
AcDbPolyline
90
4
70
1
43
0.0
10
30.985633948863537
20
1679.1449504674911
10
30.985633948863544
20
1688.5123370169113
10
35.985633948863544
20
1688.5123370169113
10
35.985633948863509
20
1679.1449504674911
0
LWPOLYLINE
5
113
100
AcDbEntity
8
0
100
AcDbPolyline
90
4
70
1
43
0.0
10
30.985633948863544
20
1669.7775639180704
10
35.985633948863509
20
1669.7775639180704
10
35.985633948863544
20
1660.4101773686502
10
30.985633948863498
20
1660.4101773686502
0
LWPOLYLINE
5
114
100
AcDbEntity
8
0
100
AcDbPolyline
90
4
70
1
43
0.0
10
35.985633948863523
20
1949.7775639180704
10
35.985633948863544
20
1940.4101773686502
10
30.985633948863498
20
1940.4101773686502
10
30.985633948863551
20
1949.7775639180704
0
LWPOLYLINE
5
115
100
AcDbEntity
8
0
100
AcDbPolyline
90
4
70
1
43
0.0
10
35.985633948863516
20
1959.1449504674911
10
30.985633948863548
20
1959.1449504674911
10
30.985633948863544
20
1968.5123370169113
10
35.985633948863544
20
1968.5123370169113
0
CIRCLE
5
116
100
AcDbEntity
8
0
100
AcDbCircle
10
61.985763369351972
20
2128.4101712367001
30
0
40
2.0000000000000284
210
0
220
-0
230
1
0
CIRCLE
5
117
100
AcDbEntity
8
0
100
AcDbCircle
10
110.10562880796185
20
2060.0401650900931
30
0
40
1.4999999999999858
210
0
220
-0
230
1
0
CIRCLE
5
118
100
AcDbEntity
8
0
100
AcDbCircle
10
62.885764635950572
20
2184.2858296737923
30
0
40
1.9999999999998863
210
0
220
-0
230
1
0
CIRCLE
5
119
100
AcDbEntity
8
0
100
AcDbCircle
10
78.105628331124691
20
2060.0401650900931
30
0
40
1.4999999999999858
210
0
220
-0
230
1
0
LWPOLYLINE
5
120
100
AcDbEntity
8
0
100
AcDbPolyline
90
4
70
1
43
0.0
10
12.500000000001577
20
1500.8329062941134
10
12.500000000001572
20
1424.1662396274467
10
7.5000000000015721
20
1424.1662396274467
10
7.5000000000015765
20
1500.8329062941134
0
LWPOLYLINE
5
121
100
AcDbEntity
8
0
100
AcDbPolyline
90
4
70
1
43
0.0
10
12.500000000001547
20
964.16623962744666
10
7.5000000000015499
20
964.16623962744666
10
7.5000000000015543
20
1040.8329062941134
10
12.500000000001553
20
1040.8329062941134
0
LWPOLYLINE
5
122
100
AcDbEntity
8
0
100
AcDbPolyline
90
4
70
1
43
0.0
10
12.500000000001567
20
1347.4995729607801
10
12.500000000001563
20
1270.8329062941134
10
7.500000000001565
20
1270.8329062941134
10
7.5000000000015685
20
1347.4995729607801
0
LWPOLYLINE
5
123
100
AcDbEntity
8
0
100
AcDbPolyline
90
4
70
1
43
0.0
10
12.500000000001556
20
1117.4995729607799
10
7.5000000000015561
20
1117.4995729607799
10
7.5000000000015614
20
1194.1662396274467
10
12.50000000000156
20
1194.1662396274467
0
LWPOLYLINE
5
124
100
AcDbEntity
8
0
100
AcDbPolyline
90
4
70
1
43
0.0
10
75.833333333333428
20
892.49999999999864
10
144.16666666666671
20
892.49999999999864
10
144.16666666666671
20
887.49957296078037
10
75.833333333333428
20
887.49957296078037
0
LWPOLYLINE
5
125
100
AcDbEntity
8
0
100
AcDbPolyline
90
4
70
1
43
0.0
10
554.16666666666674
20
892.49999999999864
10
554.16666666666674
20
887.49957296078037
10
485.83333333333343
20
887.49957296078037
10
485.83333333333343
20
892.49999999999864
0
LWPOLYLINE
5
126
100
AcDbEntity
8
0
100
AcDbPolyline
90
4
70
1
43
0.0
10
212.50000000000006
20
892.49999999999864
10
280.83333333333343
20
892.49999999999864
10
280.83333333333343
20
887.49957296078037
10
212.50000000000006
20
887.49957296078037
0
LWPOLYLINE
5
127
100
AcDbEntity
8
0
100
AcDbPolyline
90
4
70
1
43
0.0
10
417.5
20
892.49999999999864
10
417.5
20
887.49957296078037
10
349.16666666666674
20
887.49957296078037
10
349.16666666666674
20
892.49999999999864
0
LWPOLYLINE
5
128
100
AcDbEntity
8
0
100
AcDbPolyline
90
4
70
1
43
0.0
10
617.49999999999864
20
964.16660000000036
10
617.49999999999864
20
1040.8332000000005
10
622.49999999999864
20
1040.8332000000005
10
622.49999999999864
20
964.16660000000036
0
LWPOLYLINE
5
129
100
AcDbEntity
8
0
100
AcDbPolyline
90
4
70
1
43
0.0
10
617.49999999999864
20
1500.8328000000006
10
622.49999999999864
20
1500.8328000000006
10
622.49999999999864
20
1424.1662000000006
10
617.49999999999864
20
1424.1662000000006
0
LWPOLYLINE
5
130
100
AcDbEntity
8
0
100
AcDbPolyline
90
4
70
1
43
0.0
10
617.49999999999864
20
1117.4998000000003
10
617.49999999999864
20
1194.1664000000005
10
622.49999999999864
20
1194.1664000000005
10
622.49999999999864
20
1117.4998000000003
0
LWPOLYLINE
5
131
100
AcDbEntity
8
0
100
AcDbPolyline
90
4
70
1
43
0.0
10
617.49999999999864
20
1347.4996000000006
10
622.49999999999864
20
1347.4996000000006
10
622.49999999999864
20
1270.8330000000005
10
617.49999999999864
20
1270.8330000000005
0
LWPOLYLINE
5
132
100
AcDbEntity
8
0
100
AcDbPolyline
90
4
70
1
43
0.0
10
485.83333333333337
20
1577.4995729607804
10
554.16666666666663
20
1577.4995729607804
10
554.16666666666663
20
1572.4995729607804
10
485.83333333333337
20
1572.4995729607804
0
LWPOLYLINE
5
133
100
AcDbEntity
8
0
100
AcDbPolyline
90
4
70
1
43
0.0
10
75.833333333333357
20
1572.4995729607804
10
75.833333333333357
20
1577.4995729607804
10
144.16666666666663
20
1577.4995729607804
10
144.16666666666663
20
1572.4995729607804
0
LWPOLYLINE
5
134
100
AcDbEntity
8
0
100
AcDbPolyline
90
4
70
1
43
0.0
10
349.16666666666663
20
1577.4995729607804
10
417.5
20
1577.4995729607804
10
417.5
20
1572.4995729607804
10
349.16666666666663
20
1572.4995729607804
0
LWPOLYLINE
5
135
100
AcDbEntity
8
0
100
AcDbPolyline
90
4
70
1
43
0.0
10
212.50000000000006
20
1572.4995729607804
10
212.50000000000006
20
1577.4995729607804
10
280.83333333333337
20
1577.4995729607804
10
280.83333333333337
20
1572.4995729607804
0
LWPOLYLINE
5
136
100
AcDbEntity
8
0
100
AcDbPolyline
90
4
70
1
43
0.0
10
398.00000000000011
20
1600
10
564
20
1600
10
564
20
1596.0000000000002
10
398.00000000000011
20
1596.0000000000002
0
LWPOLYLINE
5
137
100
AcDbEntity
8
0
100
AcDbPolyline
90
4
70
1
43
0.0
10
232.00000000000003
20
1600
10
232.00000000000003
20
1596.0000000000002
10
66.000000000000014
20
1596.0000000000002
10
66.000000000000028
20
1600
0
LINE
5
138
100
AcDbEntity
8
0
100
AcDbLine
10
726.00000000000659
20
1011.9995729607787
30
0
11
730.00000000000659
21
1011.9995729607787
31
0
0
LINE
5
139
100
AcDbEntity
8
0
100
AcDbLine
10
730.00000000000659
20
1011.9995729607787
30
0
11
730.00000000000659
21
1158.9995729607788
31
4.7252254284538408e-31
0
LINE
5
140
100
AcDbEntity
8
0
100
AcDbLine
10
730.00000000000659
20
1158.9995729607788
30
4.7252254284538408e-31
11
726.00000000000659
21
1158.9995729607788
31
0
0
LINE
5
141
100
AcDbEntity
8
0
100
AcDbLine
10
726.00000000000659
20
1158.9995729607788
30
0
11
726.00000000000659
21
1305.9995729607786
31
4.7252254284539284e-31
0
LINE
5
142
100
AcDbEntity
8
0
100
AcDbLine
10
726.00000000000659
20
1305.9995729607786
30
4.7252254284539284e-31
11
730.00000000000659
21
1305.9995729607786
31
0
0
LINE
5
143
100
AcDbEntity
8
0
100
AcDbLine
10
730.00000000000659
20
1305.9995729607786
30
0
11
730.00000000000659
21
1452.9995729607786
31
4.7252254284539284e-31
0
LINE
5
144
100
AcDbEntity
8
0
100
AcDbLine
10
730.00000000000659
20
1452.9995729607786
30
4.7252254284539284e-31
11
726.00000000000659
21
1452.9995729607786
31
0
0
LINE
5
145
100
AcDbEntity
8
0
100
AcDbLine
10
726.00000000000659
20
1452.9995729607786
30
0
11
726.00000000000659
21
1599.9995729607786
31
0
0
LINE
5
146
100
AcDbEntity
8
0
100
AcDbLine
10
726.00000000000659
20
1599.9995729607786
30
0
11
730.00000000000671
21
1599.9995729607786
31
0
0
LINE
5
147
100
AcDbEntity
8
0
100
AcDbLine
10
730.00000000000671
20
1599.9995729607786
30
0
11
730.00000000000011
21
2249.9995729607799
31
-5.5979836318327906e-30
0
LINE
5
148
100
AcDbEntity
8
0
100
AcDbLine
10
730.00000000000011
20
2249.9995729607799
30
-5.5979836318327906e-30
11
-99.999999999999858
21
2249.9995729607799
31
0
0
LINE
5
149
100
AcDbEntity
8
0
100
AcDbLine
10
-99.999999999999858
20
2249.9995729607799
30
0
11
-99.999999999982407
21
1599.9995729607781
31
-2.2906254203794154e-30
0
LINE
5
150
100
AcDbEntity
8
0
100
AcDbLine
10
-99.999999999982407
20
1599.9995729607781
30
-2.2906254203794154e-30
11
-95.999999999982407
21
1599.9995729607781
31
-7.7961644148795062e-31
0
LINE
5
151
100
AcDbEntity
8
0
100
AcDbLine
10
-95.999999999982407
20
1599.9995729607781
30
-7.7961644148795062e-31
11
-95.999999999982407
21
1452.9995729607645
31
0
0
LINE
5
152
100
AcDbEntity
8
0
100
AcDbLine
10
-95.999999999982407
20
1452.9995729607645
30
0
11
-99.999999999982407
21
1452.9995729607645
31
7.7961644148795062e-31
0
LINE
5
153
100
AcDbEntity
8
0
100
AcDbLine
10
-99.999999999982407
20
1452.9995729607645
30
7.7961644148795062e-31
11
-99.999999999982407
21
1305.999572960751
31
0
0
LINE
5
154
100
AcDbEntity
8
0
100
AcDbLine
10
-99.999999999982407
20
1305.999572960751
30
0
11
-95.999999999982407
21
1305.999572960751
31
-7.7961644148795062e-31
0
LINE
5
155
100
AcDbEntity
8
0
100
AcDbLine
10
-95.999999999982407
20
1305.999572960751
30
-7.7961644148795062e-31
11
-95.999999999982435
21
1158.9995729607376
31
0
0
LINE
5
156
100
AcDbEntity
8
0
100
AcDbLine
10
-95.999999999982435
20
1158.9995729607376
30
0
11
-99.999999999982435
21
1158.9995729607376
31
7.7961644148795062e-31
0
LINE
5
157
100
AcDbEntity
8
0
100
AcDbLine
10
-99.999999999982435
20
1158.9995729607376
30
7.7961644148795062e-31
11
-99.999999999982435
21
1011.9995729607239
31
0
0
LINE
5
158
100
AcDbEntity
8
0
100
AcDbLine
10
-99.999999999982435
20
1011.9995729607239
30
0
11
-95.999999999982435
21
1011.9995729607239
31
-7.7961644148795062e-31
0
LINE
5
159
100
AcDbEntity
8
0
100
AcDbLine
10
-95.999999999982435
20
1011.9995729607239
30
-7.7961644148795062e-31
11
-95.999999999982464
21
868.99999999999613
31
8.173507956421729e-30
0
LINE
5
160
100
AcDbEntity
8
0
100
AcDbLine
10
-95.999999999982464
20
868.99999999999613
30
8.173507956421729e-30
11
66.000000000015262
21
868.99999999999613
31
-2.0029671421055523e-32
0
LINE
5
161
100
AcDbEntity
8
0
100
AcDbLine
10
66.000000000015262
20
868.99999999999613
30
-2.0029671421055523e-32
11
66.000000000015262
21
864.99999999999602
31
2.286302759426154e-31
0
LINE
5
162
100
AcDbEntity
8
0
100
AcDbLine
10
66.000000000015262
20
864.99999999999602
30
2.286302759426154e-31
11
-95.999999999982435
21
864.99999999999602
31
2.0029671421048517e-32
0
LINE
5
163
100
AcDbEntity
8
0
100
AcDbLine
10
-95.999999999982435
20
864.99999999999602
30
2.0029671421048517e-32
11
-95.999999999982435
21
864.9995729607781
31
2.4408523554670167e-35
0
LINE
5
164
100
AcDbEntity
8
0
100
AcDbLine
10
-95.999999999982435
20
864.9995729607781
30
2.4408523554670167e-35
11
726.00000000000659
21
864.99957296077866
31
-2.4389976815692377e-30
0
LINE
5
165
100
AcDbEntity
8
0
100
AcDbLine
10
726.00000000000659
20
864.99957296077866
30
-2.4389976815692377e-30
11
726.00000000000659
21
864.99999999999602
31
0
0
LINE
5
166
100
AcDbEntity
8
0
100
AcDbLine
10
564.00000000000909
20
864.99999999999602
30
2.0029671421006478e-32
11
564.00000000000909
21
868.99999999999613
31
-2.286302759426154e-31
0
LINE
5
167
100
AcDbEntity
8
0
100
AcDbLine
10
564.00000000000909
20
868.99999999999613
30
-2.286302759426154e-31
11
726.00000000000659
21
868.99999999999613
31
-2.0029671421006478e-32
0
LINE
5
168
100
AcDbEntity
8
0
100
AcDbLine
10
726.00000000000659
20
868.99999999999613
30
-2.0029671421006478e-32
11
726.00000000000659
21
1011.9995729607787
31
0
0
LWPOLYLINE
5
169
100
AcDbEntity
8
0
100
AcDbPolyline
90
4
70
1
43
0.0
10
398.0000000000112
20
868.99999999999613
10
398.0000000000112
20
864.99999999999602
10
232.00000000001322
20
864.99999999999602
10
232.00000000001322
20
868.99999999999613
0
LINE
5
170
100
AcDbEntity
8
0
100
AcDbLine
10
622.49999999999841
20
1577.5000000000002
30
0
11
622.49999999999841
21
1577.4994000000004
31
3.4294541386032224e-35
0
LINE
5
171
100
AcDbEntity
8
0
100
AcDbLine
10
617.49999999999841
20
1577.4994000000004
30
9.7452055185993749e-31
11
617.49999999999841
21
1577.5000000000002
31
-3.4294541386032224e-35
0
LWPOLYLINE
5
172
100
AcDbEntity
8
0
100
AcDbPolyline
90
4
70
1
43
0.0
10
631.25000000000591
20
1322.4995729607867
10
716.25000000000591
20
1322.4995729607883
10
716.25000000000955
20
1142.4995729607883
10
631.25000000000955
20
1142.4995729607867
0
LWPOLYLINE
5
173
100
AcDbEntity
8
0
100
AcDbPolyline
90
4
70
1
43
0.0
10
-86.249999999995737
20
1322.4995729607804
10
-1.249999999995719
20
1322.4995729607804
10
-1.249999999995719
20
1142.4995729607804
10
-86.249999999995737
20
1142.4995729607804
0
LWPOLYLINE
5
174
100
AcDbEntity
8
0
100
AcDbPolyline
90
4
70
1
43
0.0
10
611.50000000000011
20
1566.4995729607799
10
611.50000000000637
20
898.49957296077901
10
18.500000000016144
20
898.49957296078128
10
18.500000000000142
20
1566.4995729607799
0
ENDSEC
0
SECTION
2
OBJECTS
0
DICTIONARY
5
C
100
AcDbDictionary
3
ACAD_GROUP
350
D
3
ACAD_MLINESTYLE
350
17
0
DICTIONARY
5
D
100
AcDbDictionary
0
DICTIONARY
5
1A
330
C
100
AcDbDictionary
0
DICTIONARY
5
17
100
AcDbDictionary
0
ENDSEC
0
EOF
