0
SECTION
2
HEADER
9
$INSUNITS
70
4
9
$ACADVER
1
AC1014
9
$HANDSEED
5
FFFF
0
ENDSEC
0
SECTION
2
TABLES
0
TABLE
2
VPORT
5
8
100
AcDbSymbolTable
0
ENDTAB
0
TABLE
2
LTYPE
5
5
100
AcDbSymbolTable
0
LTYPE
5
14
100
AcDbSymbolTableRecord
100
AcDbLinetypeTableRecord
2
BYBLOCK
70
0
0
LTYPE
5
15
100
AcDbSymbolTableRecord
100
AcDbLinetypeTableRecord
2
BYLAYER
70
0
0
LTYPE
5
16
100
AcDbSymbolTableRecord
100
AcDbLinetypeTableRecord
2
DASHED
70
0
3
Dashed __ __ __ __ __ __ __ __ __ __ __ __ __ _
72
65
73
2
40
0.75
49
0.5
74
0
49
-0.25
74
0
0
ENDTAB
0
TABLE
2
LAYER
5
2
100
AcDbSymbolTable
70
3
0
LAYER
5
50
100
AcDbSymbolTableRecord
100
AcDbLayerTableRecord
2
1
70
0
62
7
6
DASHED
0
LAYER
5
51
100
AcDbSymbolTableRecord
100
AcDbLayerTableRecord
2
0
70
0
62
7
6
CONTINUOUS
0
ENDTAB
0
TABLE
2
STYLE
5
3
100
AcDbSymbolTable
70
1
0
STYLE
5
11
100
AcDbSymbolTableRecord
100
AcDbTextStyleTableRecord
2
STANDARD
70
0
0
ENDTAB
0
TABLE
2
VIEW
5
6
100
AcDbSymbolTable
70
0
0
ENDTAB
0
TABLE
2
UCS
5
7
100
AcDbSymbolTable
70
0
0
ENDTAB
0
TABLE
2
APPID
5
9
100
AcDbSymbolTable
70
2
0
APPID
5
12
100
AcDbSymbolTableRecord
100
AcDbRegAppTableRecord
2
ACAD
70
0
0
ENDTAB
0
TABLE
2
DIMSTYLE
5
A
100
AcDbSymbolTable
70
1
0
ENDTAB
0
TABLE
2
BLOCK_RECORD
5
1
100
AcDbSymbolTable
70
1
0
BLOCK_RECORD
5
1F
100
AcDbSymbolTableRecord
100
AcDbBlockTableRecord
2
*MODEL_SPACE
0
BLOCK_RECORD
5
1B
100
AcDbSymbolTableRecord
100
AcDbBlockTableRecord
2
*PAPER_SPACE
0
ENDTAB
0
ENDSEC
0
SECTION
2
BLOCKS
0
BLOCK
5
20
100
AcDbEntity
100
AcDbBlockBegin
2
*MODEL_SPACE
0
ENDBLK
5
21
100
AcDbEntity
100
AcDbBlockEnd
0
BLOCK
5
1C
100
AcDbEntity
100
AcDbBlockBegin
2
*PAPER_SPACE
0
ENDBLK
5
1D
100
AcDbEntity
100
AcDbBlockEnd
0
ENDSEC
0
SECTION
2
ENTITIES
0
LWPOLYLINE
5
100
100
AcDbEntity
8
0
100
AcDbPolyline
90
4
70
1
43
0.0
10
868.99996927554469
20
53.399998092651522
10
864.99996927554457
20
53.399998092651558
10
864.99996927554537
20
81.599998092651575
10
868.99996927554537
20
81.599998092651532
0
LWPOLYLINE
5
101
100
AcDbEntity
8
0
100
AcDbPolyline
90
52
70
1
43
0.0
10
864.99996927554412
20
-8.1250019073483948
10
864.99996927554389
20
25.199998092651576
10
868.999969275544
20
25.19999809265153
10
868.99996927554412
20
-8.1250019073485102
10
1011.9995422362707
20
-8.1250019073483237
10
1011.9995422362706
20
1.874998092651603
10
1158.999542236284
20
1.8749980926515875
10
1158.999542236284
20
-8.1250019073483397
10
1305.9995422362974
20
-8.1250019073483237
10
1305.9995422362974
20
1.874998092651603
10
1452.9995422363106
20
1.8749980926515875
10
1452.9995422363108
20
-8.1250019073483397
10
1599.9995422363261
20
-8.125001907348306
10
1599.999542236324
20
25.199998092652123
10
1595.9999692755464
20
25.199998092652063
10
1595.9999692755464
20
53.399998092652524
10
1599.999542236324
20
53.399998092652574
10
1599.999542236324
20
81.599998092653024
10
1595.9999692755464
20
81.599998092652996
10
1595.9999692755464
20
109.79999809265345
10
1599.999542236324
20
109.79999809265348
10
1599.9995422363261
20
137.99999809265165
10
1547.4996032419272
20
137.99999809265162
10
1547.4996032419272
20
133.99999809265151
10
1494.9996642475303
20
133.99999809265151
10
1494.9996642475303
20
137.99999809265162
10
1442.4997252531334
20
137.99999809265162
10
1442.4997252531339
20
133.99999809265151
10
1389.999786258737
20
133.99999809265151
10
1389.999786258737
20
137.99999809265162
10
1337.4998472643401
20
137.99999809265162
10
1337.4998472643401
20
133.99999809265151
10
1284.9999082699433
20
133.99999809265151
10
1284.9999082699433
20
137.99999809265162
10
1179.9999692755464
20
137.99999809265162
10
1179.9999692755466
20
133.99999809265151
10
1127.4999692755466
20
133.99999809265151
10
1127.4999692755466
20
137.99999809265162
10
1074.9999692755466
20
137.99999809265162
10
1074.9999692755466
20
133.99999809265151
10
1022.4999692755466
20
133.99999809265151
10
1022.4999692755467
20
137.99999809265162
10
969.99996927554685
20
137.99999809265162
10
969.99996927554685
20
133.99999809265151
10
917.49996927554685
20
133.99999809265151
10
917.49996927554685
20
137.99999809265162
10
868.9999692755465
20
137.9999980926514
10
868.99996927554594
20
109.79999809265152
10
864.99996927554594
20
109.79999809265158
10
864.99996927554662
20
137.99999809265151
10
864.9995422363271
20
137.99999809265165
10
864.9995422363271
20
-8.125001907348306
0
ENDSEC
0
SECTION
2
OBJECTS
0
DICTIONARY
5
C
100
AcDbDictionary
3
ACAD_GROUP
350
D
3
ACAD_MLINESTYLE
350
17
0
DICTIONARY
5
D
100
AcDbDictionary
0
DICTIONARY
5
1A
330
C
100
AcDbDictionary
0
DICTIONARY
5
17
100
AcDbDictionary
0
ENDSEC
0
EOF
