0
SECTION
2
HEADER
9
$INSUNITS
70
4
9
$ACADVER
1
AC1014
9
$HANDSEED
5
FFFF
0
ENDSEC
0
SECTION
2
TABLES
0
TABLE
2
VPORT
5
8
100
AcDbSymbolTable
0
ENDTAB
0
TABLE
2
LTYPE
5
5
100
AcDbSymbolTable
0
LTYPE
5
14
100
AcDbSymbolTableRecord
100
AcDbLinetypeTableRecord
2
BYBLOCK
70
0
0
LTYPE
5
15
100
AcDbSymbolTableRecord
100
AcDbLinetypeTableRecord
2
BYLAYER
70
0
0
LTYPE
5
16
100
AcDbSymbolTableRecord
100
AcDbLinetypeTableRecord
2
DASHED
70
0
3
Dashed __ __ __ __ __ __ __ __ __ __ __ __ __ _
72
65
73
2
40
0.75
49
0.5
74
0
49
-0.25
74
0
0
ENDTAB
0
TABLE
2
LAYER
5
2
100
AcDbSymbolTable
70
3
0
LAYER
5
50
100
AcDbSymbolTableRecord
100
AcDbLayerTableRecord
2
1
70
0
62
7
6
DASHED
0
LAYER
5
51
100
AcDbSymbolTableRecord
100
AcDbLayerTableRecord
2
0
70
0
62
7
6
CONTINUOUS
0
ENDTAB
0
TABLE
2
STYLE
5
3
100
AcDbSymbolTable
70
1
0
STYLE
5
11
100
AcDbSymbolTableRecord
100
AcDbTextStyleTableRecord
2
STANDARD
70
0
0
ENDTAB
0
TABLE
2
VIEW
5
6
100
AcDbSymbolTable
70
0
0
ENDTAB
0
TABLE
2
UCS
5
7
100
AcDbSymbolTable
70
0
0
ENDTAB
0
TABLE
2
APPID
5
9
100
AcDbSymbolTable
70
2
0
APPID
5
12
100
AcDbSymbolTableRecord
100
AcDbRegAppTableRecord
2
ACAD
70
0
0
ENDTAB
0
TABLE
2
DIMSTYLE
5
A
100
AcDbSymbolTable
70
1
0
ENDTAB
0
TABLE
2
BLOCK_RECORD
5
1
100
AcDbSymbolTable
70
1
0
BLOCK_RECORD
5
1F
100
AcDbSymbolTableRecord
100
AcDbBlockTableRecord
2
*MODEL_SPACE
0
BLOCK_RECORD
5
1B
100
AcDbSymbolTableRecord
100
AcDbBlockTableRecord
2
*PAPER_SPACE
0
ENDTAB
0
ENDSEC
0
SECTION
2
BLOCKS
0
BLOCK
5
20
100
AcDbEntity
100
AcDbBlockBegin
2
*MODEL_SPACE
0
ENDBLK
5
21
100
AcDbEntity
100
AcDbBlockEnd
0
BLOCK
5
1C
100
AcDbEntity
100
AcDbBlockBegin
2
*PAPER_SPACE
0
ENDBLK
5
1D
100
AcDbEntity
100
AcDbBlockEnd
0
ENDSEC
0
SECTION
2
ENTITIES
0
LWPOLYLINE
5
100
100
AcDbEntity
8
0
100
AcDbPolyline
90
4
70
1
43
0.0
10
-227.43559962743592
20
44.999996750124005
10
-230.43559962743592
20
44.999996750124005
10
-230.43559962743592
20
53.333330083457327
10
-227.43559962743592
20
53.333330083457327
0
LWPOLYLINE
5
101
100
AcDbEntity
8
0
100
AcDbPolyline
90
4
70
1
43
0.0
10
-261.43559962743586
20
53.333330083457327
10
-258.43559962743586
20
53.333330083457327
10
-258.43559962743586
20
44.999996750123984
10
-261.43559962743586
20
44.999996750123984
0
LWPOLYLINE
5
102
100
AcDbEntity
8
0
100
AcDbPolyline
90
4
70
1
43
0.0
10
-227.43559962743592
20
61.666663416790698
10
-230.43559962743592
20
61.666663416790698
10
-230.43559962743592
20
69.999996750124041
10
-227.43559962743592
20
69.999996750124041
0
LWPOLYLINE
5
103
100
AcDbEntity
8
0
100
AcDbPolyline
90
4
70
1
43
0.0
10
-258.43559962743586
20
61.666663416790684
10
-261.43559962743586
20
61.666663416790684
10
-261.43559962743586
20
69.999996750124026
10
-258.43559962743586
20
69.999996750124026
0
LWPOLYLINE
5
104
100
AcDbEntity
8
0
100
AcDbPolyline
90
10
70
1
43
0.0
10
-75.935599627436019
20
48.349997718699456
10
-76.935599627436034
20
48.349997718699456
10
-76.935599627436019
20
44.999996750124005
10
-79.935599627436019
20
44.999996750124005
10
-79.935599627436005
20
48.349997718699456
10
-107.93559962743598
20
48.349997718699456
10
-107.93559962743599
20
44.999996750123984
10
-110.93559962743599
20
44.999996750123984
10
-110.93559962743599
20
53.333330083457327
10
-75.935599627436005
20
53.333330083457327
0
LWPOLYLINE
5
105
100
AcDbEntity
8
0
100
AcDbPolyline
90
10
70
1
43
0.0
10
-75.935599627436019
20
64.99999771869949
10
-76.935599627436034
20
64.99999771869949
10
-76.935599627436019
20
61.666663416790684
10
-79.935599627436019
20
61.666663416790684
10
-79.935599627436005
20
64.99999771869949
10
-107.93559962743598
20
64.99999771869949
10
-107.93559962743599
20
61.666663416790669
10
-110.93559962743599
20
61.666663416790669
10
-110.93559962743599
20
69.999996750124012
10
-75.935599627436005
20
69.999997793205296
0
CIRCLE
5
106
100
AcDbEntity
8
0
100
AcDbCircle
10
-93.985665386296674
20
106.47492141873695
30
0
40
2.0000000000000009
210
1.4084898949781651e-33
220
-1.9546723554928192e-50
230
1
0
CIRCLE
5
107
100
AcDbEntity
8
0
100
AcDbCircle
10
-84.585133173506591
20
80.839353607479268
30
0
40
2
210
1.4084898949785156e-33
220
-1.9546723554933058e-50
230
1
0
CIRCLE
5
108
100
AcDbEntity
8
0
100
AcDbCircle
10
-103.38145097562636
20
80.845800827859279
30
0
40
2
210
1.4084898949785156e-33
220
-1.9546723554933058e-50
230
1
0
CIRCLE
5
109
100
AcDbEntity
8
0
100
AcDbCircle
10
-244.48566538629674
20
106.47492141873691
30
0
40
2.0000000000000009
210
-1.7755710522084474e-46
220
2.4640997875380261e-63
230
1
0
CIRCLE
5
110
100
AcDbEntity
8
0
100
AcDbCircle
10
-253.88145097562642
20
80.845800827859264
30
0
40
2
210
-1.7755710522084478e-46
220
2.4640997875380267e-63
230
1
0
CIRCLE
5
111
100
AcDbEntity
8
0
100
AcDbCircle
10
-235.08513317350662
20
80.839353607479239
30
0
40
2
210
-1.7755710522084478e-46
220
2.4640997875380267e-63
230
1
0
CIRCLE
5
112
100
AcDbEntity
8
0
100
AcDbCircle
10
-545.06011404598371
20
106.47492141873795
30
0
40
2.0000000000000009
210
-6.238543326280411e-33
220
9.2352583864286443e-50
230
1
0
CIRCLE
5
113
100
AcDbEntity
8
0
100
AcDbCircle
10
-535.65958183319356
20
80.839353607480263
30
0
40
2
210
-6.2385433262800607e-33
220
9.2352583864281334e-50
230
1
0
CIRCLE
5
114
100
AcDbEntity
8
0
100
AcDbCircle
10
-554.45589963531336
20
80.845800827860302
30
0
40
2
210
-6.2385433262800607e-33
220
9.2352583864281334e-50
230
1
0
CIRCLE
5
115
100
AcDbEntity
8
0
100
AcDbCircle
10
-394.56011404598371
20
106.47492141873798
30
0
40
2.0000000000000009
210
-6.238543326280411e-33
220
9.2352583864286443e-50
230
1
0
CIRCLE
5
116
100
AcDbEntity
8
0
100
AcDbCircle
10
-403.95589963531341
20
80.845800827860316
30
0
40
2
210
-6.2385433262800607e-33
220
9.2352583864281334e-50
230
1
0
CIRCLE
5
117
100
AcDbEntity
8
0
100
AcDbCircle
10
-385.15958183319361
20
80.839353607480277
30
0
40
2
210
-6.2385433262800607e-33
220
9.2352583864281334e-50
230
1
0
CIRCLE
5
118
100
AcDbEntity
8
0
100
AcDbCircle
10
-394.56008323146472
20
90.874921418737301
30
0
40
9.1000000000000387
210
-1.7629442828620235e-46
220
1.2325951644078312e-32
230
1
0
CIRCLE
5
119
100
AcDbEntity
8
0
100
AcDbCircle
10
-545.06008323146466
20
90.874921418737316
30
0
40
9.1000000000000387
210
-1.7629442828620235e-46
220
1.2325951644078312e-32
230
1
0
CIRCLE
5
120
100
AcDbEntity
8
0
100
AcDbCircle
10
-93.985665386509083
20
90.874921418737301
30
0
40
9.1000000000000032
210
-1.7591705486903681e-46
220
-4.2076585108078323e-71
230
1
0
CIRCLE
5
121
100
AcDbEntity
8
0
100
AcDbCircle
10
-244.48566538650903
20
90.874921418737316
30
0
40
9.1000000000000032
210
-1.7591705486903681e-46
220
-4.2076585108078323e-71
230
1
0
LWPOLYLINE
5
122
100
AcDbEntity
8
0
100
AcDbPolyline
90
40
70
1
43
0.0
10
-65.999999728845367
20
-8.1250032498759595
10
-65.999999728845367
20
1.8749967501240428
10
96.000000271137012
20
1.8749967501240321
10
96.000000271137111
20
25.199996750124537
10
100.00000027113713
20
25.199996750124534
10
100.0000002711372
20
53.399996750124998
10
96.00000027113721
20
53.399996750124998
10
96.000000271137296
20
81.599996750125456
10
100.00000027113728
20
81.599996750125484
10
100.00000027113737
20
109.79999675012594
10
96.000000271137381
20
109.79999675012593
10
96.000000271137452
20
137.99999675012413
10
-18.571428300274562
20
137.9999967501264
10
-18.571428300274565
20
133.9999967501243
10
-137.14285687170408
20
133.99999675012467
10
-137.14285687170411
20
137.99999675012643
10
-255.71428544313363
20
137.99999675012643
10
-255.71428544313363
20
133.99999675012504
10
-374.28571401456315
20
133.99999675012535
10
-374.28571401456315
20
137.99999675012643
10
-492.85714258599279
20
137.99999675012646
10
-492.85714258599279
20
133.99999675012572
10
-611.4285711574222
20
133.99999675012609
10
-611.4285711574222
20
137.99999675012646
10
-729.99999972884495
20
137.9999967501264
10
-729.99999972884495
20
109.79999675012411
10
-725.99999972885189
20
109.79999675012409
10
-725.99999972885189
20
81.599996750124092
10
-729.99999972884495
20
81.599996750124092
10
-729.99999972884495
20
53.399996750124089
10
-725.99999972885189
20
53.399996750124075
10
-725.99999972885189
20
25.199996750124068
10
-729.99999972884495
20
25.199996750124054
10
-729.99999972884484
20
1.8749967501240361
10
-563.99999972884518
20
1.8749967501240321
10
-563.99999972884518
20
-8.1250032498759612
10
-397.99999972884518
20
-8.1250032498759328
10
-397.99999972884513
20
1.8749967501240783
10
-231.9999997288453
20
1.8749967501240676
10
-231.99999972884527
20
-8.1250032498759612
0
ENDSEC
0
SECTION
2
OBJECTS
0
DICTIONARY
5
C
100
AcDbDictionary
3
ACAD_GROUP
350
D
3
ACAD_MLINESTYLE
350
17
0
DICTIONARY
5
D
100
AcDbDictionary
0
DICTIONARY
5
1A
330
C
100
AcDbDictionary
0
DICTIONARY
5
17
100
AcDbDictionary
0
ENDSEC
0
EOF
