0
SECTION
2
HEADER
9
$INSUNITS
70
4
9
$ACADVER
1
AC1014
9
$HANDSEED
5
FFFF
0
ENDSEC
0
SECTION
2
TABLES
0
TABLE
2
VPORT
5
8
100
AcDbSymbolTable
0
ENDTAB
0
TABLE
2
LTYPE
5
5
100
AcDbSymbolTable
0
LTYPE
5
14
100
AcDbSymbolTableRecord
100
AcDbLinetypeTableRecord
2
BYBLOCK
70
0
0
LTYPE
5
15
100
AcDbSymbolTableRecord
100
AcDbLinetypeTableRecord
2
BYLAYER
70
0
0
LTYPE
5
16
100
AcDbSymbolTableRecord
100
AcDbLinetypeTableRecord
2
DASHED
70
0
3
Dashed __ __ __ __ __ __ __ __ __ __ __ __ __ _
72
65
73
2
40
0.75
49
0.5
74
0
49
-0.25
74
0
0
ENDTAB
0
TABLE
2
LAYER
5
2
100
AcDbSymbolTable
70
3
0
LAYER
5
50
100
AcDbSymbolTableRecord
100
AcDbLayerTableRecord
2
1
70
0
62
7
6
DASHED
0
LAYER
5
51
100
AcDbSymbolTableRecord
100
AcDbLayerTableRecord
2
0
70
0
62
7
6
CONTINUOUS
0
ENDTAB
0
TABLE
2
STYLE
5
3
100
AcDbSymbolTable
70
1
0
STYLE
5
11
100
AcDbSymbolTableRecord
100
AcDbTextStyleTableRecord
2
STANDARD
70
0
0
ENDTAB
0
TABLE
2
VIEW
5
6
100
AcDbSymbolTable
70
0
0
ENDTAB
0
TABLE
2
UCS
5
7
100
AcDbSymbolTable
70
0
0
ENDTAB
0
TABLE
2
APPID
5
9
100
AcDbSymbolTable
70
2
0
APPID
5
12
100
AcDbSymbolTableRecord
100
AcDbRegAppTableRecord
2
ACAD
70
0
0
ENDTAB
0
TABLE
2
DIMSTYLE
5
A
100
AcDbSymbolTable
70
1
0
ENDTAB
0
TABLE
2
BLOCK_RECORD
5
1
100
AcDbSymbolTable
70
1
0
BLOCK_RECORD
5
1F
100
AcDbSymbolTableRecord
100
AcDbBlockTableRecord
2
*MODEL_SPACE
0
BLOCK_RECORD
5
1B
100
AcDbSymbolTableRecord
100
AcDbBlockTableRecord
2
*PAPER_SPACE
0
ENDTAB
0
ENDSEC
0
SECTION
2
BLOCKS
0
BLOCK
5
20
100
AcDbEntity
100
AcDbBlockBegin
2
*MODEL_SPACE
0
ENDBLK
5
21
100
AcDbEntity
100
AcDbBlockEnd
0
BLOCK
5
1C
100
AcDbEntity
100
AcDbBlockBegin
2
*PAPER_SPACE
0
ENDBLK
5
1D
100
AcDbEntity
100
AcDbBlockEnd
0
ENDSEC
0
SECTION
2
ENTITIES
0
CIRCLE
5
100
100
AcDbEntity
8
0
100
AcDbCircle
10
-244.48566565766373
20
90.874932862849818
30
0
40
9.1000000000000103
210
2.6941468277729493e-47
220
-1.6603961760588146e-78
230
1
0
CIRCLE
5
101
100
AcDbEntity
8
0
100
AcDbCircle
10
-93.985665657663731
20
90.874932862849832
30
0
40
9.1000000000000103
210
2.6941468277729493e-47
220
-1.6603961760588146e-78
230
1
0
CIRCLE
5
102
100
AcDbEntity
8
0
100
AcDbCircle
10
-545.06008350261948
20
90.874932862849832
30
0
40
9.1000000000000458
210
2.6941468277729663e-47
220
3.1554436208840472e-30
230
1
0
CIRCLE
5
103
100
AcDbEntity
8
0
100
AcDbCircle
10
-394.56008350261948
20
90.874932862849818
30
0
40
9.1000000000000458
210
2.6941468277729663e-47
220
3.1554436208840472e-30
230
1
0
CIRCLE
5
104
100
AcDbEntity
8
0
100
AcDbCircle
10
-385.15958210434826
20
80.839365051592836
30
0
40
2.0000000000000013
210
-5.2760369385931136e-33
220
7.8104074337779375e-50
230
1
0
CIRCLE
5
105
100
AcDbEntity
8
0
100
AcDbCircle
10
-403.95589990646806
20
80.845812271972846
30
0
40
2.0000000000000013
210
-5.2760369385931136e-33
220
7.8104074337779375e-50
230
1
0
CIRCLE
5
106
100
AcDbEntity
8
0
100
AcDbCircle
10
-394.5601143171383
20
106.47493286285049
30
0
40
2.0000000000000022
210
-5.2760369385933339e-33
220
7.8104074337782632e-50
230
1
0
CIRCLE
5
107
100
AcDbEntity
8
0
100
AcDbCircle
10
-554.45589990646806
20
80.845812271972846
30
0
40
2.0000000000000013
210
-5.2760369385931136e-33
220
7.8104074337779375e-50
230
1
0
CIRCLE
5
108
100
AcDbEntity
8
0
100
AcDbCircle
10
-535.65958210434826
20
80.839365051592807
30
0
40
2.0000000000000013
210
-5.2760369385931136e-33
220
7.8104074337779375e-50
230
1
0
CIRCLE
5
109
100
AcDbEntity
8
0
100
AcDbCircle
10
-545.06011431713841
20
106.47493286285048
30
0
40
2.0000000000000022
210
-5.2760369385933339e-33
220
7.8104074337782632e-50
230
1
0
CIRCLE
5
110
100
AcDbEntity
8
0
100
AcDbCircle
10
-235.08513344466124
20
80.839365051591898
30
0
40
2.0000000000000013
210
1.313717310304516e-46
220
-1.823149007172732e-63
230
1
0
CIRCLE
5
111
100
AcDbEntity
8
0
100
AcDbCircle
10
-253.88145124678104
20
80.845812271971937
30
0
40
2.0000000000000013
210
1.313717310304516e-46
220
-1.823149007172732e-63
230
1
0
CIRCLE
5
112
100
AcDbEntity
8
0
100
AcDbCircle
10
-244.48566565745136
20
106.47493286284961
30
0
40
2.0000000000000022
210
-4.3790577010150543e-47
220
6.0771633572424379e-64
230
1
0
CIRCLE
5
113
100
AcDbEntity
8
0
100
AcDbCircle
10
-103.38145124678098
20
80.845812271971965
30
0
40
2.0000000000000013
210
-5.7777898569872847e-34
220
8.0182941632836884e-51
230
1
0
CIRCLE
5
114
100
AcDbEntity
8
0
100
AcDbCircle
10
-84.585133444661182
20
80.839365051591926
30
0
40
2.0000000000000013
210
-5.7777898569872847e-34
220
8.0182941632836884e-51
230
1
0
CIRCLE
5
115
100
AcDbEntity
8
0
100
AcDbCircle
10
-93.985665657451293
20
106.47493286284963
30
0
40
2.0000000000000022
210
-5.7777898569912276e-34
220
8.0182941632891555e-51
230
1
0
LWPOLYLINE
5
116
100
AcDbEntity
8
0
100
AcDbPolyline
90
40
70
1
43
0.0
10
-729.9000000000068
20
81.600008194236636
10
-729.9000000000068
20
53.40000819423657
10
-726.00000000000682
20
53.400008194236577
10
-726.00000000000682
20
25.20000819423651
10
-729.9000000000068
20
25.200008194236503
10
-729.9000000000068
20
-8.1249918057636847
10
-564.00000000000898
20
-8.1249918057635018
10
-564.00000000000909
20
1.8750081942364805
10
-398.0000000000112
20
1.8750081942364802
10
-398.00000000001114
20
-8.1249918057635195
10
-232.00000000001319
20
-8.1249918057635018
10
-232.00000000001319
20
1.8750081942364627
10
-66.000000000015262
20
1.8750081942364802
10
-66.000000000015248
20
-8.1249918057635373
10
99.999999999993008
20
-8.1249918057637149
10
99.999999999993022
20
25.200008194236499
10
95.999999999982549
20
25.200008194236485
10
95.999999999982634
20
53.400008194236513
10
99.999999999993037
20
53.40000819423652
10
99.999999999993037
20
81.600008194236551
10
95.99999999998272
20
81.600008194236551
10
95.999999999982805
20
109.80000819423658
10
99.999999999993037
20
109.80000819423653
10
99.999999999993022
20
138.00000819423641
10
-22.000000000014523
20
138.00000819423656
10
-22.00000000001452
20
134.00000819423687
10
-140.00000000001205
20
134.00000819423721
10
-140.00000000001205
20
138.00000819423659
10
-258.00000000000944
20
138.00000819423656
10
-258.00000000000944
20
134.00000819423755
10
-376.00000000000699
20
134.00000819423792
10
-376.00000000000699
20
138.00000819423656
10
-494.00000000000455
20
138.00000819423661
10
-494.00000000000455
20
134.00000819423829
10
-612.00000000000193
20
134.00000819423863
10
-612.00000000000193
20
138.00000819423659
10
-729.9000000000068
20
138.00000819423644
10
-729.9000000000068
20
109.80000819423668
10
-726.00000000000682
20
109.80000819423668
10
-726.00000000000682
20
81.600008194236608
0
ENDSEC
0
SECTION
2
OBJECTS
0
DICTIONARY
5
C
100
AcDbDictionary
3
ACAD_GROUP
350
D
3
ACAD_MLINESTYLE
350
17
0
DICTIONARY
5
D
100
AcDbDictionary
0
DICTIONARY
5
1A
330
C
100
AcDbDictionary
0
DICTIONARY
5
17
100
AcDbDictionary
0
ENDSEC
0
EOF
