0
SECTION
2
HEADER
9
$INSUNITS
70
4
9
$ACADVER
1
AC1014
9
$HANDSEED
5
FFFF
0
ENDSEC
0
SECTION
2
TABLES
0
TABLE
2
VPORT
5
8
100
AcDbSymbolTable
0
ENDTAB
0
TABLE
2
LTYPE
5
5
100
AcDbSymbolTable
0
LTYPE
5
14
100
AcDbSymbolTableRecord
100
AcDbLinetypeTableRecord
2
BYBLOCK
70
0
0
LTYPE
5
15
100
AcDbSymbolTableRecord
100
AcDbLinetypeTableRecord
2
BYLAYER
70
0
0
LTYPE
5
16
100
AcDbSymbolTableRecord
100
AcDbLinetypeTableRecord
2
DASHED
70
0
3
Dashed __ __ __ __ __ __ __ __ __ __ __ __ __ _
72
65
73
2
40
0.75
49
0.5
74
0
49
-0.25
74
0
0
ENDTAB
0
TABLE
2
LAYER
5
2
100
AcDbSymbolTable
70
3
0
LAYER
5
50
100
AcDbSymbolTableRecord
100
AcDbLayerTableRecord
2
1
70
0
62
7
6
DASHED
0
LAYER
5
51
100
AcDbSymbolTableRecord
100
AcDbLayerTableRecord
2
0
70
0
62
7
6
CONTINUOUS
0
ENDTAB
0
TABLE
2
STYLE
5
3
100
AcDbSymbolTable
70
1
0
STYLE
5
11
100
AcDbSymbolTableRecord
100
AcDbTextStyleTableRecord
2
STANDARD
70
0
0
ENDTAB
0
TABLE
2
VIEW
5
6
100
AcDbSymbolTable
70
0
0
ENDTAB
0
TABLE
2
UCS
5
7
100
AcDbSymbolTable
70
0
0
ENDTAB
0
TABLE
2
APPID
5
9
100
AcDbSymbolTable
70
2
0
APPID
5
12
100
AcDbSymbolTableRecord
100
AcDbRegAppTableRecord
2
ACAD
70
0
0
ENDTAB
0
TABLE
2
DIMSTYLE
5
A
100
AcDbSymbolTable
70
1
0
ENDTAB
0
TABLE
2
BLOCK_RECORD
5
1
100
AcDbSymbolTable
70
1
0
BLOCK_RECORD
5
1F
100
AcDbSymbolTableRecord
100
AcDbBlockTableRecord
2
*MODEL_SPACE
0
BLOCK_RECORD
5
1B
100
AcDbSymbolTableRecord
100
AcDbBlockTableRecord
2
*PAPER_SPACE
0
ENDTAB
0
ENDSEC
0
SECTION
2
BLOCKS
0
BLOCK
5
20
100
AcDbEntity
100
AcDbBlockBegin
2
*MODEL_SPACE
0
ENDBLK
5
21
100
AcDbEntity
100
AcDbBlockEnd
0
BLOCK
5
1C
100
AcDbEntity
100
AcDbBlockBegin
2
*PAPER_SPACE
0
ENDBLK
5
1D
100
AcDbEntity
100
AcDbBlockEnd
0
ENDSEC
0
SECTION
2
ENTITIES
0
LWPOLYLINE
5
100
100
AcDbEntity
8
0
100
AcDbPolyline
90
94
70
1
43
0.0
10
-18.571428571429198
20
1596
10
-18.571428571429198
20
1600
10
-137.14285714285882
20
1600
10
-137.14285714285882
20
1596
10
-255.71428571428839
20
1596
10
-255.71428571428839
20
1600
10
-374.28571428571797
20
1600
10
-374.28571428571797
20
1596
10
-492.85714285714761
20
1596
10
-492.85714285714761
20
1600
10
-611.42857142857724
20
1600
10
-611.42857142857724
20
1596
10
-726.00000000000682
20
1596
10
-726.00000000000682
20
1547.4996339663817
10
-730.00000000000682
20
1547.4996339663817
10
-730.00000000000682
20
1494.9996949719846
10
-726.00000000000682
20
1494.9996949719846
10
-726.00000000000682
20
1442.4997559775877
10
-730.00000000000682
20
1442.4997559775877
10
-730.00000000000682
20
1389.9998169831908
10
-726.00000000000682
20
1389.9998169831908
10
-726.00000000000682
20
1337.499877988794
10
-730.00000000000682
20
1337.499877988794
10
-730.00000000000682
20
1284.9999389943969
10
-726.00000000000682
20
1284.9999389943969
10
-726.00000000000682
20
1232.5
10
-699.25925925925867
20
1232.5
10
-699.25925925925867
20
1222.5
10
-668.51851851851802
20
1222.5
10
-668.51851851851802
20
1232.5
10
-637.77777777777726
20
1232.5
10
-637.77777777777726
20
1222.5
10
-622.5
20
1222.5
10
-622.50000000000011
20
1261.3888414400867
10
-617.52549466286507
20
1261.3888414400867
10
-617.52549466286507
20
1300.2776828801734
10
-622.50000000000011
20
1300.2776828801734
10
-622.50000000000011
20
1339.1665243202601
10
-617.52549466286507
20
1339.1665243202601
10
-617.52549466286507
20
1378.0553657603468
10
-622.50000000000011
20
1378.0553657603468
10
-622.50000000000011
20
1416.9442072004335
10
-617.52549466286507
20
1416.9442072004335
10
-617.52549466286507
20
1455.8330486405202
10
-622.50000000000011
20
1455.8330486405202
10
-622.50000000000011
20
1494.721890080607
10
-617.52549466286507
20
1494.721890080607
10
-617.52549466286507
20
1533.6107315206934
10
-622.50000000000011
20
1533.6107315206934
10
-622.5
20
1577.5000000000005
10
-617.5
20
1577.5000000000005
10
-617.5
20
1577.4995729607801
10
-534.64285714285711
20
1577.4995729607801
10
-534.64285714285711
20
1572.5633828157661
10
-446.78571428571433
20
1572.5633828157661
10
-446.78571428571433
20
1577.4995729607801
10
-358.92857142857139
20
1577.4995729607801
10
-358.92857142857139
20
1572.5633828157661
10
-271.07142857142856
20
1572.5633828157661
10
-271.07142857142856
20
1577.4995729607801
10
-183.21428571428561
20
1577.4995729607801
10
-183.21428571428561
20
1572.5633828157661
10
-95.357142857142776
20
1572.5633828157661
10
-95.357142857142776
20
1577.4995729607801
10
-7.5
20
1577.4995729607801
10
-7.5000000000000338
20
1522.4996339663833
10
-12.500000000000034
20
1522.4996339663833
10
-12.500000000000036
20
1572.4995729607801
10
-12.500201185639579
20
1572.4995729607801
10
-12.500201185639579
20
1222.5
10
-12.500000000000018
20
1222.5
10
-12.50000000000002
20
1272.4999389943971
10
-7.5000000000000195
20
1272.4999389943971
10
-7.5000000000000178
20
1222.5
10
7.7777777777782831
20
1222.5
10
7.7777777777783186
20
1232.5
10
38.518518518519016
20
1232.5
10
38.518518518519052
20
1222.5
10
69.259259259259778
20
1222.5
10
69.259259259259778
20
1232.5
10
95.999999999982876
20
1232.5
10
95.999999999982876
20
1284.9999389943969
10
99.999999999982876
20
1284.9999389943969
10
99.999999999982876
20
1337.4998779887937
10
95.999999999982876
20
1337.4998779887937
10
95.999999999982876
20
1389.9998169831906
10
99.999999999982876
20
1389.9998169831906
10
99.999999999982876
20
1442.4997559775875
10
95.999999999982876
20
1442.4997559775875
10
95.999999999982876
20
1494.9996949719844
10
99.999999999982876
20
1494.9996949719844
10
99.999999999982876
20
1547.4996339663812
10
95.999999999982876
20
1547.4996339663812
10
95.999999999982876
20
1596
0
LWPOLYLINE
5
101
100
AcDbEntity
8
0
100
AcDbPolyline
90
4
70
1
43
0.0
10
-12.500000000000032
20
1472.4996949719862
10
-7.5000000000000311
20
1472.4996949719862
10
-7.5000000000000284
20
1422.4997559775886
10
-12.500000000000027
20
1422.4997559775888
0
LWPOLYLINE
5
102
100
AcDbEntity
8
0
100
AcDbPolyline
90
4
70
1
43
0.0
10
-7.5000000000000258
20
1372.4998169831917
10
-7.5000000000000231
20
1322.4998779887942
10
-12.500000000000021
20
1322.4998779887942
10
-12.500000000000027
20
1372.4998169831917
0
ENDSEC
0
SECTION
2
OBJECTS
0
DICTIONARY
5
C
100
AcDbDictionary
3
ACAD_GROUP
350
D
3
ACAD_MLINESTYLE
350
17
0
DICTIONARY
5
D
100
AcDbDictionary
0
DICTIONARY
5
1A
330
C
100
AcDbDictionary
0
DICTIONARY
5
17
100
AcDbDictionary
0
ENDSEC
0
EOF
