0
SECTION
2
HEADER
9
$INSUNITS
70
4
9
$ACADVER
1
AC1014
9
$HANDSEED
5
FFFF
0
ENDSEC
0
SECTION
2
TABLES
0
TABLE
2
VPORT
5
8
100
AcDbSymbolTable
0
ENDTAB
0
TABLE
2
LTYPE
5
5
100
AcDbSymbolTable
0
LTYPE
5
14
100
AcDbSymbolTableRecord
100
AcDbLinetypeTableRecord
2
BYBLOCK
70
0
0
LTYPE
5
15
100
AcDbSymbolTableRecord
100
AcDbLinetypeTableRecord
2
BYLAYER
70
0
0
LTYPE
5
16
100
AcDbSymbolTableRecord
100
AcDbLinetypeTableRecord
2
DASHED
70
0
3
Dashed __ __ __ __ __ __ __ __ __ __ __ __ __ _
72
65
73
2
40
0.75
49
0.5
74
0
49
-0.25
74
0
0
ENDTAB
0
TABLE
2
LAYER
5
2
100
AcDbSymbolTable
70
3
0
LAYER
5
50
100
AcDbSymbolTableRecord
100
AcDbLayerTableRecord
2
1
70
0
62
7
6
DASHED
0
LAYER
5
51
100
AcDbSymbolTableRecord
100
AcDbLayerTableRecord
2
0
70
0
62
7
6
CONTINUOUS
0
ENDTAB
0
TABLE
2
STYLE
5
3
100
AcDbSymbolTable
70
1
0
STYLE
5
11
100
AcDbSymbolTableRecord
100
AcDbTextStyleTableRecord
2
STANDARD
70
0
0
ENDTAB
0
TABLE
2
VIEW
5
6
100
AcDbSymbolTable
70
0
0
ENDTAB
0
TABLE
2
UCS
5
7
100
AcDbSymbolTable
70
0
0
ENDTAB
0
TABLE
2
APPID
5
9
100
AcDbSymbolTable
70
2
0
APPID
5
12
100
AcDbSymbolTableRecord
100
AcDbRegAppTableRecord
2
ACAD
70
0
0
ENDTAB
0
TABLE
2
DIMSTYLE
5
A
100
AcDbSymbolTable
70
1
0
ENDTAB
0
TABLE
2
BLOCK_RECORD
5
1
100
AcDbSymbolTable
70
1
0
BLOCK_RECORD
5
1F
100
AcDbSymbolTableRecord
100
AcDbBlockTableRecord
2
*MODEL_SPACE
0
BLOCK_RECORD
5
1B
100
AcDbSymbolTableRecord
100
AcDbBlockTableRecord
2
*PAPER_SPACE
0
ENDTAB
0
ENDSEC
0
SECTION
2
BLOCKS
0
BLOCK
5
20
100
AcDbEntity
100
AcDbBlockBegin
2
*MODEL_SPACE
0
ENDBLK
5
21
100
AcDbEntity
100
AcDbBlockEnd
0
BLOCK
5
1C
100
AcDbEntity
100
AcDbBlockBegin
2
*PAPER_SPACE
0
ENDBLK
5
1D
100
AcDbEntity
100
AcDbBlockEnd
0
ENDSEC
0
SECTION
2
ENTITIES
0
LWPOLYLINE
5
100
100
AcDbEntity
8
0
100
AcDbPolyline
90
96
70
1
43
0.0
10
-726.00000000000682
20
1232.5
10
-726.00000000000682
20
1180.5714285714284
10
-730.00000000000682
20
1180.5714285714284
10
-730.00000000000682
20
1128.6428571428569
10
-726.00000000000682
20
1128.6428571428569
10
-726.00000000000682
20
1076.7142857142856
10
-730.00000000000682
20
1076.7142857142856
10
-730.00000000000682
20
1024.785714285714
10
-726.00000000000682
20
1024.785714285714
10
-726.00000000000682
20
972.85714285714243
10
-730.00000000000682
20
972.85714285714243
10
-730.00000000000682
20
920.9285714285711
10
-726.00000000000682
20
920.9285714285711
10
-726.00000000000693
20
868.99999999999966
10
-612.00000000000205
20
868.99999999999966
10
-612.00000000000205
20
864.99999999999955
10
-494.0000000000046
20
864.99999999999955
10
-494.0000000000046
20
868.99999999999966
10
-376.00000000000705
20
868.99999999999966
10
-376.00000000000705
20
864.99999999999955
10
-258.00000000000955
20
864.99999999999955
10
-258.00000000000955
20
868.99999999999966
10
-140.00000000001199
20
868.99999999999966
10
-140.00000000001199
20
864.99999999999955
10
-22.000000000014523
20
864.99999999999955
10
-22.000000000014523
20
868.99999999999966
10
95.99999999998289
20
868.99999999999966
10
95.99999999998289
20
917.5
10
99.99999999998289
20
917.5
10
99.99999999998289
20
970
10
95.99999999998289
20
970
10
95.99999999998289
20
1022.5
10
99.99999999998289
20
1022.5
10
99.99999999998289
20
1075
10
95.99999999998289
20
1075
10
95.99999999998289
20
1127.5
10
99.99999999998289
20
1127.5
10
99.99999999998289
20
1180
10
95.99999999998289
20
1180
10
95.99999999998289
20
1232.5
10
69.259259259259778
20
1232.5
10
69.259259259259778
20
1222.5
10
38.518518518519052
20
1222.5
10
38.518518518519016
20
1232.5
10
7.7777777777782475
20
1232.5
10
7.7777777777782831
20
1222.5
10
-7.5000000000000178
20
1222.5
10
-7.5000000000000275
20
1185.8333333333335
10
-12.500000000000027
20
1185.8333333333335
10
-12.500000000000018
20
1222.5
10
-12.500201185639579
20
1222.5
10
-12.500201185639581
20
892.50000000000182
10
-12.500000000000002
20
892.50000000000205
10
-12.500000000000016
20
929.16666666666811
10
-7.500000000000016
20
929.16666666666811
10
-7.5000000000000711
20
887.49957296078026
10
-75.833333333333357
20
887.49957296078037
10
-75.833333333333357
20
892.5
10
-144.16666666666671
20
892.5
10
-144.16666666666671
20
887.49957296078037
10
-212.5
20
887.49957296078037
10
-212.5
20
892.5
10
-280.83333333333337
20
892.5
10
-280.83333333333337
20
887.49957296078037
10
-349.16666666666663
20
887.49957296078037
10
-349.16666666666663
20
892.5
10
-417.5
20
892.5
10
-417.5
20
887.49957296078037
10
-485.83333333333326
20
887.49957296078037
10
-485.83333333333326
20
892.5
10
-554.16666666666652
20
892.5
10
-554.16666666666652
20
887.49957296078037
10
-622.50000000000011
20
887.49957296078026
10
-622.50000000000011
20
925.8333333333336
10
-617.52549466286507
20
925.8333333333336
10
-617.52549466286507
20
964.16666666666686
10
-622.50000000000011
20
964.16666666666686
10
-622.50000000000011
20
1002.5000000000001
10
-617.52549466286507
20
1002.5000000000001
10
-617.52549466286507
20
1040.8333333333335
10
-622.50000000000011
20
1040.8333333333335
10
-622.50000000000011
20
1079.166666666667
10
-617.52549466286507
20
1079.166666666667
10
-617.52549466286507
20
1117.5000000000002
10
-622.50000000000011
20
1117.5000000000002
10
-622.50000000000011
20
1155.8333333333335
10
-617.52549466286507
20
1155.8333333333335
10
-617.52549466286507
20
1194.1666666666667
10
-622.50000000000011
20
1194.1666666666667
10
-622.5
20
1222.5
10
-637.77777777777726
20
1222.5
10
-637.77777777777726
20
1232.5
10
-668.51851851851802
20
1232.5
10
-668.51851851851802
20
1222.5
10
-699.25925925925878
20
1222.5
10
-699.25925925925878
20
1232.5
0
LWPOLYLINE
5
101
100
AcDbEntity
8
0
100
AcDbPolyline
90
4
70
1
43
0.0
10
-12.500000000000021
20
1075.8333333333342
10
-7.5000000000000222
20
1075.8333333333342
10
-7.5000000000000213
20
1039.1666666666677
10
-12.50000000000002
20
1039.1666666666677
0
LWPOLYLINE
5
102
100
AcDbEntity
8
0
100
AcDbPolyline
90
4
70
1
43
0.0
10
-7.5000000000000178
20
1002.5000000000011
10
-7.5000000000000169
20
965.83333333333462
10
-12.500000000000018
20
965.83333333333462
10
-12.500000000000018
20
1002.5000000000011
0
LWPOLYLINE
5
103
100
AcDbEntity
8
0
100
AcDbPolyline
90
4
70
1
43
0.0
10
-12.500000000000027
20
1149.1666666666672
10
-7.5000000000000266
20
1149.1666666666672
10
-7.5000000000000249
20
1112.5000000000005
10
-12.500000000000025
20
1112.5000000000005
0
ENDSEC
0
SECTION
2
OBJECTS
0
DICTIONARY
5
C
100
AcDbDictionary
3
ACAD_GROUP
350
D
3
ACAD_MLINESTYLE
350
17
0
DICTIONARY
5
D
100
AcDbDictionary
0
DICTIONARY
5
1A
330
C
100
AcDbDictionary
0
DICTIONARY
5
17
100
AcDbDictionary
0
ENDSEC
0
EOF
