0
SECTION
2
HEADER
9
$INSUNITS
70
4
9
$ACADVER
1
AC1014
9
$HANDSEED
5
FFFF
0
ENDSEC
0
SECTION
2
TABLES
0
TABLE
2
VPORT
5
8
100
AcDbSymbolTable
0
ENDTAB
0
TABLE
2
LTYPE
5
5
100
AcDbSymbolTable
0
LTYPE
5
14
100
AcDbSymbolTableRecord
100
AcDbLinetypeTableRecord
2
BYBLOCK
70
0
0
LTYPE
5
15
100
AcDbSymbolTableRecord
100
AcDbLinetypeTableRecord
2
BYLAYER
70
0
0
LTYPE
5
16
100
AcDbSymbolTableRecord
100
AcDbLinetypeTableRecord
2
DASHED
70
0
3
Dashed __ __ __ __ __ __ __ __ __ __ __ __ __ _
72
65
73
2
40
0.75
49
0.5
74
0
49
-0.25
74
0
0
ENDTAB
0
TABLE
2
LAYER
5
2
100
AcDbSymbolTable
70
3
0
LAYER
5
50
100
AcDbSymbolTableRecord
100
AcDbLayerTableRecord
2
1
70
0
62
7
6
DASHED
0
LAYER
5
51
100
AcDbSymbolTableRecord
100
AcDbLayerTableRecord
2
0
70
0
62
7
6
CONTINUOUS
0
ENDTAB
0
TABLE
2
STYLE
5
3
100
AcDbSymbolTable
70
1
0
STYLE
5
11
100
AcDbSymbolTableRecord
100
AcDbTextStyleTableRecord
2
STANDARD
70
0
0
ENDTAB
0
TABLE
2
VIEW
5
6
100
AcDbSymbolTable
70
0
0
ENDTAB
0
TABLE
2
UCS
5
7
100
AcDbSymbolTable
70
0
0
ENDTAB
0
TABLE
2
APPID
5
9
100
AcDbSymbolTable
70
2
0
APPID
5
12
100
AcDbSymbolTableRecord
100
AcDbRegAppTableRecord
2
ACAD
70
0
0
ENDTAB
0
TABLE
2
DIMSTYLE
5
A
100
AcDbSymbolTable
70
1
0
ENDTAB
0
TABLE
2
BLOCK_RECORD
5
1
100
AcDbSymbolTable
70
1
0
BLOCK_RECORD
5
1F
100
AcDbSymbolTableRecord
100
AcDbBlockTableRecord
2
*MODEL_SPACE
0
BLOCK_RECORD
5
1B
100
AcDbSymbolTableRecord
100
AcDbBlockTableRecord
2
*PAPER_SPACE
0
ENDTAB
0
ENDSEC
0
SECTION
2
BLOCKS
0
BLOCK
5
20
100
AcDbEntity
100
AcDbBlockBegin
2
*MODEL_SPACE
0
ENDBLK
5
21
100
AcDbEntity
100
AcDbBlockEnd
0
BLOCK
5
1C
100
AcDbEntity
100
AcDbBlockBegin
2
*PAPER_SPACE
0
ENDBLK
5
1D
100
AcDbEntity
100
AcDbBlockEnd
0
ENDSEC
0
SECTION
2
ENTITIES
0
LWPOLYLINE
5
100
100
AcDbEntity
8
0
100
AcDbPolyline
90
6
70
1
43
0.0
10
-1133.8740000000003
20
51.874649812362406
42
0.41421356237309531
10
-1183.8740000000003
20
101.87464981236246
10
-1281.1268540784406
20
101.87464981236243
42
0.41421356237309342
10
-1331.1268540784406
20
51.874649812362428
10
-1331.1268540784406
20
11.874649812362456
10
-1133.8740000000003
20
11.874649812362431
0
LWPOLYLINE
5
101
100
AcDbEntity
8
0
100
AcDbPolyline
90
76
70
1
43
0.0
10
-964.16660000000036
20
-8.1249999999934772
10
-964.16660000000036
20
1.8750000000065281
10
-887.50000000000023
20
1.8750000000065239
10
-887.50000000000023
20
11.874649812362366
10
-892.49999999999875
20
11.874649812362289
10
-892.49999999999875
20
30.142857142863665
10
-887.50000000000023
20
30.142857142863665
10
-887.50000000000023
20
51.714285714292259
10
-892.49999999999898
20
51.714285714292274
10
-892.49999999999909
20
73.285714285720871
10
-887.50000000000023
20
73.285714285720886
10
-887.50000000000023
20
94.857142857149483
10
-892.49999999999932
20
94.857142857149483
10
-892.49999999999955
20
116.42857142857807
10
-887.50000000000023
20
116.42857142857807
10
-887.50000000000023
20
138.00000000000657
10
-925.8333333333336
20
138.0000000000089
10
-925.8333333333336
20
134.00000000000858
10
-964.16666666666686
20
134.00000000000858
10
-964.16666666666686
20
138.0000000000089
10
-1002.5000000000001
20
138.0000000000089
10
-1002.5000000000002
20
134.00000000000858
10
-1040.8333333333335
20
134.00000000000858
10
-1040.8333333333335
20
138.0000000000089
10
-1079.166666666667
20
138.0000000000089
10
-1079.166666666667
20
134.00000000000858
10
-1117.5
20
134.00000000000858
10
-1117.5
20
138.0000000000089
10
-1155.8333333333335
20
138.0000000000089
10
-1155.8333333333335
20
134.00000000000858
10
-1194.1666666666667
20
134.00000000000858
10
-1194.1666666666667
20
138.0000000000089
10
-1261.3888414400867
20
138.0000000000089
10
-1261.3888414400867
20
134.00000000000858
10
-1300.2776828801734
20
134.00000000000858
10
-1300.2776828801734
20
138.0000000000089
10
-1339.1665243202601
20
138.0000000000089
10
-1339.1665243202601
20
134.00000000000858
10
-1378.0553657603468
20
134.00000000000858
10
-1378.0553657603468
20
138.0000000000089
10
-1416.9442072004335
20
138.0000000000089
10
-1416.9442072004335
20
134.00000000000858
10
-1455.8330486405202
20
134.00000000000858
10
-1455.8330486405202
20
138.0000000000089
10
-1494.7218900806067
20
138.0000000000089
10
-1494.7218900806067
20
134.00000000000858
10
-1533.6107315206934
20
134.00000000000858
10
-1533.6107315206934
20
138.0000000000089
10
-1577.4994000000006
20
138.00000000000665
10
-1577.4994000000006
20
116.4285714285781
10
-1572.4995729607799
20
116.4285714285781
10
-1572.4995729607799
20
94.857142857149483
10
-1577.4994000000006
20
94.857142857149483
10
-1577.4994000000006
20
73.285714285720871
10
-1572.4995729607799
20
73.285714285720886
10
-1572.4995729607799
20
51.714285714292274
10
-1577.4994000000006
20
51.714285714292274
10
-1577.4994000000006
20
30.142857142863654
10
-1572.4995729607799
20
30.142857142863647
10
-1572.4995729607799
20
11.874649812362343
10
-1577.4994000000006
20
11.87464981236236
10
-1577.4994000000006
20
1.8750000000065248
10
-1500.8328000000006
20
1.8750000000065283
10
-1500.8328000000006
20
-8.1249999999934772
10
-1424.1662000000006
20
-8.1249999999934772
10
-1424.1662000000006
20
1.8750000000065281
10
-1347.4996000000006
20
1.8750000000065283
10
-1347.4996000000006
20
-8.1249999999934772
10
-1270.8330000000005
20
-8.1249999999934772
10
-1270.8330000000005
20
1.8750000000065281
10
-1194.1664000000005
20
1.8750000000065283
10
-1194.1664000000005
20
-8.1249999999934772
10
-1117.4998000000005
20
-8.1249999999934772
10
-1117.4998000000005
20
1.8750000000065281
10
-1040.8332000000005
20
1.8750000000065283
10
-1040.8332000000005
20
-8.1249999999934772
0
ENDSEC
0
SECTION
2
OBJECTS
0
DICTIONARY
5
C
100
AcDbDictionary
3
ACAD_GROUP
350
D
3
ACAD_MLINESTYLE
350
17
0
DICTIONARY
5
D
100
AcDbDictionary
0
DICTIONARY
5
1A
330
C
100
AcDbDictionary
0
DICTIONARY
5
17
100
AcDbDictionary
0
ENDSEC
0
EOF
