0
SECTION
2
HEADER
9
$INSUNITS
70
4
9
$ACADVER
1
AC1014
9
$HANDSEED
5
FFFF
0
ENDSEC
0
SECTION
2
TABLES
0
TABLE
2
VPORT
5
8
100
AcDbSymbolTable
0
ENDTAB
0
TABLE
2
LTYPE
5
5
100
AcDbSymbolTable
0
LTYPE
5
14
100
AcDbSymbolTableRecord
100
AcDbLinetypeTableRecord
2
BYBLOCK
70
0
0
LTYPE
5
15
100
AcDbSymbolTableRecord
100
AcDbLinetypeTableRecord
2
BYLAYER
70
0
0
LTYPE
5
16
100
AcDbSymbolTableRecord
100
AcDbLinetypeTableRecord
2
DASHED
70
0
3
Dashed __ __ __ __ __ __ __ __ __ __ __ __ __ _
72
65
73
2
40
0.75
49
0.5
74
0
49
-0.25
74
0
0
ENDTAB
0
TABLE
2
LAYER
5
2
100
AcDbSymbolTable
70
3
0
LAYER
5
50
100
AcDbSymbolTableRecord
100
AcDbLayerTableRecord
2
1
70
0
62
7
6
DASHED
0
LAYER
5
51
100
AcDbSymbolTableRecord
100
AcDbLayerTableRecord
2
0
70
0
62
7
6
CONTINUOUS
0
ENDTAB
0
TABLE
2
STYLE
5
3
100
AcDbSymbolTable
70
1
0
STYLE
5
11
100
AcDbSymbolTableRecord
100
AcDbTextStyleTableRecord
2
STANDARD
70
0
0
ENDTAB
0
TABLE
2
VIEW
5
6
100
AcDbSymbolTable
70
0
0
ENDTAB
0
TABLE
2
UCS
5
7
100
AcDbSymbolTable
70
0
0
ENDTAB
0
TABLE
2
APPID
5
9
100
AcDbSymbolTable
70
2
0
APPID
5
12
100
AcDbSymbolTableRecord
100
AcDbRegAppTableRecord
2
ACAD
70
0
0
ENDTAB
0
TABLE
2
DIMSTYLE
5
A
100
AcDbSymbolTable
70
1
0
ENDTAB
0
TABLE
2
BLOCK_RECORD
5
1
100
AcDbSymbolTable
70
1
0
BLOCK_RECORD
5
1F
100
AcDbSymbolTableRecord
100
AcDbBlockTableRecord
2
*MODEL_SPACE
0
BLOCK_RECORD
5
1B
100
AcDbSymbolTableRecord
100
AcDbBlockTableRecord
2
*PAPER_SPACE
0
ENDTAB
0
ENDSEC
0
SECTION
2
BLOCKS
0
BLOCK
5
20
100
AcDbEntity
100
AcDbBlockBegin
2
*MODEL_SPACE
0
ENDBLK
5
21
100
AcDbEntity
100
AcDbBlockEnd
0
BLOCK
5
1C
100
AcDbEntity
100
AcDbBlockBegin
2
*PAPER_SPACE
0
ENDBLK
5
1D
100
AcDbEntity
100
AcDbBlockEnd
0
ENDSEC
0
SECTION
2
ENTITIES
0
CIRCLE
5
100
100
AcDbEntity
8
0
100
AcDbCircle
10
93.985665657451392
20
106.47492466861293
30
0
40
2.0000000000000009
210
-6.1629758220391328e-33
220
-8.5528470722342383e-50
230
1
0
CIRCLE
5
101
100
AcDbEntity
8
0
100
AcDbCircle
10
84.585133444661267
20
80.83935685735527
30
0
40
2.0000000000000004
210
-9.2444637330587102e-33
220
1.7503401533451862e-46
230
1
0
CIRCLE
5
102
100
AcDbEntity
8
0
100
AcDbCircle
10
103.38145124678105
20
80.845804077735309
30
0
40
2.0000000000000004
210
-9.2444637330587102e-33
220
1.7503401533451862e-46
230
1
0
CIRCLE
5
103
100
AcDbEntity
8
0
100
AcDbCircle
10
244.48566565745142
20
106.47492466861293
30
0
40
2.0000000000000009
210
-6.1629758220391328e-33
220
-8.5528470722342402e-50
230
1
0
CIRCLE
5
104
100
AcDbEntity
8
0
100
AcDbCircle
10
253.88145124678113
20
80.845804077735281
30
0
40
2.0000000000000004
210
-9.2444637330587102e-33
220
1.7503401533451862e-46
230
1
0
CIRCLE
5
105
100
AcDbEntity
8
0
100
AcDbCircle
10
235.08513344466135
20
80.839356857355241
30
0
40
2.0000000000000004
210
-9.2444637330587102e-33
220
1.7503401533451862e-46
230
1
0
CIRCLE
5
106
100
AcDbEntity
8
0
100
AcDbCircle
10
545.0601143171383
20
106.47492466861392
30
0
40
2.0000000000000009
210
-6.1629758220391315e-33
220
1.7507107412254041e-46
230
1
0
CIRCLE
5
107
100
AcDbEntity
8
0
100
AcDbCircle
10
535.65958210434826
20
80.839356857356265
30
0
40
2.0000000000000004
210
-6.1629758220391322e-33
220
1.7507107412254037e-46
230
1
0
CIRCLE
5
108
100
AcDbEntity
8
0
100
AcDbCircle
10
554.45589990646806
20
80.845804077736304
30
0
40
2.0000000000000004
210
-6.1629758220391322e-33
220
1.7507107412254037e-46
230
1
0
CIRCLE
5
109
100
AcDbEntity
8
0
100
AcDbCircle
10
394.5601143171383
20
106.47492466861392
30
0
40
2.0000000000000009
210
-6.1629758220391315e-33
220
1.7507107412254041e-46
230
1
0
CIRCLE
5
110
100
AcDbEntity
8
0
100
AcDbCircle
10
403.95589990646795
20
80.845804077736346
30
0
40
2.0000000000000004
210
-6.1629758220391322e-33
220
1.7507107412254037e-46
230
1
0
CIRCLE
5
111
100
AcDbEntity
8
0
100
AcDbCircle
10
385.15958210434826
20
80.839356857356307
30
0
40
2.0000000000000004
210
-6.1629758220391322e-33
220
1.7507107412254037e-46
230
1
0
CIRCLE
5
112
100
AcDbEntity
8
0
100
AcDbCircle
10
394.56008350261948
20
90.874924668613289
30
0
40
9.1000000000000387
210
-9.2444637330587335e-33
220
-1.4529073252109608e-62
230
1
0
CIRCLE
5
113
100
AcDbEntity
8
0
100
AcDbCircle
10
545.06008350261925
20
90.874924668613289
30
0
40
9.1000000000000387
210
-9.2444637330587335e-33
220
-1.4515399634555713e-62
230
1
0
CIRCLE
5
114
100
AcDbEntity
8
0
100
AcDbCircle
10
93.985665657663844
20
90.874924668613289
30
0
40
9.1000000000000032
210
-9.2444637330587321e-33
220
1.7516230804060211e-46
230
1
0
CIRCLE
5
115
100
AcDbEntity
8
0
100
AcDbCircle
10
244.48566565766379
20
90.874924668613289
30
0
40
9.1000000000000032
210
-9.2444637330587321e-33
220
1.7516230804060211e-46
230
1
0
LWPOLYLINE
5
116
100
AcDbEntity
8
0
100
AcDbPolyline
90
46
70
1
43
0.0
10
554.16666666666652
20
-8.1249999999999645
10
554.16666666666652
20
1.8750000000000377
10
617.49999999999841
20
1.8750000000000444
10
617.49999999999818
20
-8.1250000000000462
10
622.49999999999989
20
-8.1250000000000444
10
622.49999999999989
20
137.99999999999997
10
534.64285714285688
20
137.99999999999994
10
534.64285714285688
20
134.00000000000185
10
446.78571428571416
20
134.00000000000159
10
446.78571428571416
20
137.99999999999994
10
358.92857142857122
20
137.99999999999994
10
358.92857142857133
20
134.00000000000136
10
271.07142857142856
20
134.00000000000108
10
271.07142857142856
20
137.99999999999994
10
183.21428571428572
20
137.99999999999994
10
183.21428571428572
20
134.00000000000082
10
95.357142857142847
20
134.00000000000057
10
95.357142857142847
20
137.99999999999994
10
7.5000000000002132
20
137.99999999999994
10
7.5000000000000711
20
116.42857142857147
10
12.500000000000318
20
116.42857142857154
10
12.500000000000568
20
94.857142857142946
10
7.5000000000000728
20
94.85714285714289
10
7.5000000000000711
20
73.285714285714334
10
12.50000000000078
20
73.285714285714349
10
12.500000000000995
20
51.714285714285765
10
7.5000000000000728
20
51.714285714285715
10
7.5000000000000711
20
30.142857142857128
10
12.500000000001242
20
30.142857142857167
10
12.500000000001421
20
11.874649812355859
10
7.4999999999999662
20
11.874649812355882
10
7.5000000000000711
20
1.8750000000000422
10
75.8333333333334
20
1.8750000000000444
10
75.833333333333428
20
-8.1249999999999574
10
144.16666666666674
20
-8.1249999999999645
10
144.16666666666674
20
1.8750000000000377
10
212.5
20
1.8750000000000444
10
212.50000000000003
20
-8.1249999999999574
10
280.83333333333337
20
-8.1249999999999645
10
280.83333333333337
20
1.8750000000000377
10
349.16666666666663
20
1.8750000000000444
10
349.16666666666663
20
-8.1249999999999574
10
417.49999999999994
20
-8.1249999999999645
10
417.49999999999989
20
1.8750000000000377
10
485.8333333333332
20
1.8750000000000444
10
485.8333333333332
20
-8.1249999999999574
0
ENDSEC
0
SECTION
2
OBJECTS
0
DICTIONARY
5
C
100
AcDbDictionary
3
ACAD_GROUP
350
D
3
ACAD_MLINESTYLE
350
17
0
DICTIONARY
5
D
100
AcDbDictionary
0
DICTIONARY
5
1A
330
C
100
AcDbDictionary
0
DICTIONARY
5
17
100
AcDbDictionary
0
ENDSEC
0
EOF
