0
SECTION
2
HEADER
9
$INSUNITS
70
4
9
$ACADVER
1
AC1014
9
$HANDSEED
5
FFFF
0
ENDSEC
0
SECTION
2
TABLES
0
TABLE
2
VPORT
5
8
100
AcDbSymbolTable
0
ENDTAB
0
TABLE
2
LTYPE
5
5
100
AcDbSymbolTable
0
LTYPE
5
14
100
AcDbSymbolTableRecord
100
AcDbLinetypeTableRecord
2
BYBLOCK
70
0
0
LTYPE
5
15
100
AcDbSymbolTableRecord
100
AcDbLinetypeTableRecord
2
BYLAYER
70
0
0
LTYPE
5
16
100
AcDbSymbolTableRecord
100
AcDbLinetypeTableRecord
2
DASHED
70
0
3
Dashed __ __ __ __ __ __ __ __ __ __ __ __ __ _
72
65
73
2
40
0.75
49
0.5
74
0
49
-0.25
74
0
0
ENDTAB
0
TABLE
2
LAYER
5
2
100
AcDbSymbolTable
70
3
0
LAYER
5
50
100
AcDbSymbolTableRecord
100
AcDbLayerTableRecord
2
1
70
0
62
7
6
DASHED
0
LAYER
5
51
100
AcDbSymbolTableRecord
100
AcDbLayerTableRecord
2
0
70
0
62
7
6
CONTINUOUS
0
ENDTAB
0
TABLE
2
STYLE
5
3
100
AcDbSymbolTable
70
1
0
STYLE
5
11
100
AcDbSymbolTableRecord
100
AcDbTextStyleTableRecord
2
STANDARD
70
0
0
ENDTAB
0
TABLE
2
VIEW
5
6
100
AcDbSymbolTable
70
0
0
ENDTAB
0
TABLE
2
UCS
5
7
100
AcDbSymbolTable
70
0
0
ENDTAB
0
TABLE
2
APPID
5
9
100
AcDbSymbolTable
70
2
0
APPID
5
12
100
AcDbSymbolTableRecord
100
AcDbRegAppTableRecord
2
ACAD
70
0
0
ENDTAB
0
TABLE
2
DIMSTYLE
5
A
100
AcDbSymbolTable
70
1
0
ENDTAB
0
TABLE
2
BLOCK_RECORD
5
1
100
AcDbSymbolTable
70
1
0
BLOCK_RECORD
5
1F
100
AcDbSymbolTableRecord
100
AcDbBlockTableRecord
2
*MODEL_SPACE
0
BLOCK_RECORD
5
1B
100
AcDbSymbolTableRecord
100
AcDbBlockTableRecord
2
*PAPER_SPACE
0
ENDTAB
0
ENDSEC
0
SECTION
2
BLOCKS
0
BLOCK
5
20
100
AcDbEntity
100
AcDbBlockBegin
2
*MODEL_SPACE
0
ENDBLK
5
21
100
AcDbEntity
100
AcDbBlockEnd
0
BLOCK
5
1C
100
AcDbEntity
100
AcDbBlockBegin
2
*PAPER_SPACE
0
ENDBLK
5
1D
100
AcDbEntity
100
AcDbBlockEnd
0
ENDSEC
0
SECTION
2
ENTITIES
0
CIRCLE
5
100
100
AcDbEntity
8
0
100
AcDbCircle
10
93.985665657451307
20
106.47492466862104
30
0
40
2.0000000000000009
210
-1.5407439563864322e-33
220
-2.1382117692749416e-50
230
1
0
CIRCLE
5
101
100
AcDbEntity
8
0
100
AcDbCircle
10
84.585133444661196
20
80.839356857363384
30
0
40
2.0000000000000004
210
-1.540743956386476e-33
220
-2.1382117692750023e-50
230
1
0
CIRCLE
5
102
100
AcDbEntity
8
0
100
AcDbCircle
10
103.381451246781
20
80.845804077743395
30
0
40
2.0000000000000004
210
-1.540743956386476e-33
220
-2.1382117692750023e-50
230
1
0
CIRCLE
5
103
100
AcDbEntity
8
0
100
AcDbCircle
10
244.48566565745131
20
106.47492466862101
30
0
40
2.0000000000000009
210
-0
220
0
230
1
0
CIRCLE
5
104
100
AcDbEntity
8
0
100
AcDbCircle
10
253.88145124678101
20
80.845804077743367
30
0
40
2.0000000000000004
210
-0
220
0
230
1
0
CIRCLE
5
105
100
AcDbEntity
8
0
100
AcDbCircle
10
235.08513344466121
20
80.839356857363356
30
0
40
2.0000000000000004
210
-0
220
0
230
1
0
CIRCLE
5
106
100
AcDbEntity
8
0
100
AcDbCircle
10
545.0601143171383
20
106.47492466862192
30
0
40
2.0000000000000009
210
6.5788920053526464e-33
220
9.7390953897160378e-50
230
1
0
CIRCLE
5
107
100
AcDbEntity
8
0
100
AcDbCircle
10
535.65958210434826
20
80.83935685736428
30
0
40
2.0000000000000004
210
6.5788920053525588e-33
220
9.739095389715903e-50
230
1
0
CIRCLE
5
108
100
AcDbEntity
8
0
100
AcDbCircle
10
554.45589990646806
20
80.845804077744276
30
0
40
2.0000000000000004
210
6.5788920053525588e-33
220
9.739095389715903e-50
230
1
0
CIRCLE
5
109
100
AcDbEntity
8
0
100
AcDbCircle
10
394.5601143171383
20
106.47492466862192
30
0
40
2.0000000000000009
210
6.5788920053526464e-33
220
9.7390953897160378e-50
230
1
0
CIRCLE
5
110
100
AcDbEntity
8
0
100
AcDbCircle
10
403.95589990646806
20
80.845804077744276
30
0
40
2.0000000000000004
210
6.5788920053525588e-33
220
9.739095389715903e-50
230
1
0
CIRCLE
5
111
100
AcDbEntity
8
0
100
AcDbCircle
10
385.15958210434826
20
80.83935685736428
30
0
40
2.0000000000000004
210
6.5788920053525588e-33
220
9.739095389715903e-50
230
1
0
CIRCLE
5
112
100
AcDbEntity
8
0
100
AcDbCircle
10
394.56008350261953
20
90.874924668621276
30
0
40
9.1000000000000405
210
0
220
-0
230
1
0
CIRCLE
5
113
100
AcDbEntity
8
0
100
AcDbCircle
10
545.06008350261948
20
90.874924668621276
30
0
40
9.1000000000000405
210
0
220
-0
230
1
0
CIRCLE
5
114
100
AcDbEntity
8
0
100
AcDbCircle
10
93.985665657663759
20
90.874924668621276
30
0
40
9.100000000000005
210
0
220
-0
230
1
0
CIRCLE
5
115
100
AcDbEntity
8
0
100
AcDbCircle
10
244.48566565766379
20
90.874924668621276
30
0
40
9.100000000000005
210
0
220
-0
230
1
0
LWPOLYLINE
5
116
100
AcDbEntity
8
0
100
AcDbPolyline
90
58
70
1
43
0.0
10
75.8333333333334
20
1.8750000000079048
10
75.833333333333428
20
-8.1249999999920988
10
144.16666666666671
20
-8.1249999999920952
10
144.16666666666674
20
1.8750000000079092
10
212.50000000000006
20
1.8750000000079048
10
212.50000000000006
20
-8.1249999999920988
10
280.83333333333337
20
-8.1249999999920952
10
280.83333333333337
20
1.8750000000079092
10
349.16666666666674
20
1.8750000000079048
10
349.16666666666674
20
-8.1249999999920988
10
417.50000000000006
20
-8.1249999999920952
10
417.50000000000006
20
1.8750000000079092
10
485.83333333333337
20
1.8750000000079048
10
485.83333333333337
20
-8.1249999999920988
10
554.16666666666674
20
-8.1249999999920952
10
554.16666666666674
20
1.8750000000079092
10
622.50000000000011
20
1.8750000000079048
10
622.49999999999886
20
30.142857142865061
10
617.49999999999886
20
30.142857142865012
10
617.49999999999909
20
51.714285714293638
10
622.49999999999909
20
51.714285714293666
10
622.49999999999932
20
73.285714285722293
10
617.49999999999932
20
73.28571428572225
10
617.49999999999955
20
94.857142857150833
10
622.49999999999955
20
94.857142857150905
10
622.49999999999977
20
116.42857142857952
10
617.49999999999977
20
116.42857142857946
10
617.5
20
138.00000000000807
10
554.16666666666652
20
138.00000000001035
10
554.16666666666652
20
134.00000000000983
10
485.83333333333326
20
134.00000000000966
10
485.83333333333326
20
138.00000000001035
10
417.49999999999994
20
138.00000000001035
10
417.49999999999994
20
134.00000000000944
10
349.16666666666663
20
134.00000000000921
10
349.16666666666663
20
138.00000000001035
10
280.83333333333337
20
138.00000000001035
10
280.83333333333337
20
134.00000000000901
10
212.50000000000006
20
134.00000000000881
10
212.50000000000006
20
138.00000000001035
10
144.16666666666663
20
138.00000000001035
10
144.16666666666663
20
134.00000000000861
10
75.833333333333357
20
134.00000000000841
10
75.833333333333357
20
138.00000000001035
10
7.5000000000000711
20
138.00000000000793
10
7.5000000000000711
20
116.42857142857949
10
12.500000000000249
20
116.42857142857956
10
12.500000000000473
20
94.857142857150976
10
7.5000000000000711
20
94.857142857150905
10
7.5000000000000711
20
73.285714285722307
10
12.500000000000696
20
73.285714285722392
10
12.500000000000922
20
51.714285714293801
10
7.5000000000000711
20
51.714285714293737
10
7.5000000000000711
20
30.142857142865147
10
12.500000000001146
20
30.142857142865225
10
12.500000000001306
20
11.874649812363787
10
7.5000000000000711
20
11.874649812363636
10
7.5000000000000693
20
1.8750000000079181
0
ENDSEC
0
SECTION
2
OBJECTS
0
DICTIONARY
5
C
100
AcDbDictionary
3
ACAD_GROUP
350
D
3
ACAD_MLINESTYLE
350
17
0
DICTIONARY
5
D
100
AcDbDictionary
0
DICTIONARY
5
1A
330
C
100
AcDbDictionary
0
DICTIONARY
5
17
100
AcDbDictionary
0
ENDSEC
0
EOF
