0
SECTION
2
HEADER
9
$INSUNITS
70
4
9
$ACADVER
1
AC1014
9
$HANDSEED
5
FFFF
0
ENDSEC
0
SECTION
2
TABLES
0
TABLE
2
VPORT
5
8
100
AcDbSymbolTable
0
ENDTAB
0
TABLE
2
LTYPE
5
5
100
AcDbSymbolTable
0
LTYPE
5
14
100
AcDbSymbolTableRecord
100
AcDbLinetypeTableRecord
2
BYBLOCK
70
0
0
LTYPE
5
15
100
AcDbSymbolTableRecord
100
AcDbLinetypeTableRecord
2
BYLAYER
70
0
0
LTYPE
5
16
100
AcDbSymbolTableRecord
100
AcDbLinetypeTableRecord
2
DASHED
70
0
3
Dashed __ __ __ __ __ __ __ __ __ __ __ __ __ _
72
65
73
2
40
0.75
49
0.5
74
0
49
-0.25
74
0
0
ENDTAB
0
TABLE
2
LAYER
5
2
100
AcDbSymbolTable
70
3
0
LAYER
5
50
100
AcDbSymbolTableRecord
100
AcDbLayerTableRecord
2
1
70
0
62
7
6
DASHED
0
LAYER
5
51
100
AcDbSymbolTableRecord
100
AcDbLayerTableRecord
2
0
70
0
62
7
6
CONTINUOUS
0
ENDTAB
0
TABLE
2
STYLE
5
3
100
AcDbSymbolTable
70
1
0
STYLE
5
11
100
AcDbSymbolTableRecord
100
AcDbTextStyleTableRecord
2
STANDARD
70
0
0
ENDTAB
0
TABLE
2
VIEW
5
6
100
AcDbSymbolTable
70
0
0
ENDTAB
0
TABLE
2
UCS
5
7
100
AcDbSymbolTable
70
0
0
ENDTAB
0
TABLE
2
APPID
5
9
100
AcDbSymbolTable
70
2
0
APPID
5
12
100
AcDbSymbolTableRecord
100
AcDbRegAppTableRecord
2
ACAD
70
0
0
ENDTAB
0
TABLE
2
DIMSTYLE
5
A
100
AcDbSymbolTable
70
1
0
ENDTAB
0
TABLE
2
BLOCK_RECORD
5
1
100
AcDbSymbolTable
70
1
0
BLOCK_RECORD
5
1F
100
AcDbSymbolTableRecord
100
AcDbBlockTableRecord
2
*MODEL_SPACE
0
BLOCK_RECORD
5
1B
100
AcDbSymbolTableRecord
100
AcDbBlockTableRecord
2
*PAPER_SPACE
0
ENDTAB
0
ENDSEC
0
SECTION
2
BLOCKS
0
BLOCK
5
20
100
AcDbEntity
100
AcDbBlockBegin
2
*MODEL_SPACE
0
ENDBLK
5
21
100
AcDbEntity
100
AcDbBlockEnd
0
BLOCK
5
1C
100
AcDbEntity
100
AcDbBlockBegin
2
*PAPER_SPACE
0
ENDBLK
5
1D
100
AcDbEntity
100
AcDbBlockEnd
0
ENDSEC
0
SECTION
2
ENTITIES
0
LWPOLYLINE
5
100
100
AcDbEntity
8
0
100
AcDbPolyline
90
68
70
1
43
0.0
10
-1500.832936604819
20
1.875000476837112
10
-1500.832936604819
20
-8.124999523162888
10
-1424.1662699381523
20
-8.1249995231628898
10
-1424.1662699381523
20
1.8750004768371076
10
-1347.4996032714855
20
1.8750004768371096
10
-1347.4996032714855
20
-8.1249995231628969
10
-1270.8329366048188
20
-8.1249995231628951
10
-1270.8329366048188
20
1.8750004768371076
10
-1194.1662699381523
20
1.8750004768371096
10
-1194.1662699381523
20
-8.1249995231628915
10
-1117.4996032714855
20
-8.1249995231628951
10
-1117.4996032714855
20
1.875000476837112
10
-1040.8329366048188
20
1.8750004768371096
10
-1040.8329366048188
20
-8.1249995231628915
10
-964.16626993815214
20
-8.1249995231628898
10
-964.16626993815214
20
1.8750004768371076
10
-887.4996032714854
20
1.8750004768371051
10
-887.49960327148574
20
30.142857619694393
10
-892.50003031070423
20
30.142857619694379
10
-892.50003031070446
20
51.714286191122952
10
-887.49960327148574
20
51.714286191122973
10
-887.49960327148574
20
73.285714762551535
10
-892.50003031070469
20
73.285714762551535
10
-892.5000303107048
20
94.857143333980105
10
-887.49960327148574
20
94.857143333980105
10
-887.49960327148574
20
116.42857190540867
10
-892.50003031070503
20
116.42857190540867
10
-892.50003031070537
20
138.00000047683727
10
-929.16669697737359
20
138.00000047683949
10
-929.1666969773737
20
134.00000047683736
10
-965.83336364404022
20
134.00000047683736
10
-965.83336364403999
20
138.00000047683949
10
-1002.5000303107066
20
138.00000047683952
10
-1002.5000303107067
20
134.00000047683736
10
-1039.1666969773732
20
134.00000047683736
10
-1039.166696977373
20
138.00000047683949
10
-1075.8333636440395
20
138.00000047683952
10
-1075.8333636440398
20
134.00000047683736
10
-1112.5000303107063
20
134.00000047683736
10
-1112.5000303107061
20
138.00000047683949
10
-1149.1666969773726
20
138.00000047683949
10
-1149.1666969773726
20
134.00000047683736
10
-1185.8333636440393
20
134.00000047683736
10
-1185.8333636440391
20
138.00000047683949
10
-1272.4999693051027
20
138.00000047683722
10
-1272.4999693051027
20
134.00000047683739
10
-1322.4999082994998
20
134.00000047683736
10
-1322.4999082994998
20
138.00000047683722
10
-1372.4998472938973
20
138.00000047683719
10
-1372.4998472938973
20
134.00000047683739
10
-1422.4997862882944
20
134.00000047683739
10
-1422.4997862882944
20
138.00000047683722
10
-1472.4997252826915
20
138.00000047683716
10
-1472.4997252826915
20
134.00000047683739
10
-1522.4996642770886
20
134.00000047683739
10
-1522.4996642770886
20
138.00000047683716
10
-1572.4996032714855
20
138.00000047683713
10
-1572.4996032714855
20
116.42857190540859
10
-1577.4996032714855
20
116.42857190540859
10
-1577.4996032714855
20
94.857143333980005
10
-1572.4996032714855
20
94.857143333980005
10
-1572.4996032714855
20
73.285714762551407
10
-1577.4996032714855
20
73.285714762551407
10
-1577.4996032714855
20
51.714286191122824
10
-1572.4996032714855
20
51.714286191122802
10
-1572.4996032714855
20
30.142857619694233
10
-1577.4996032714855
20
30.142857619694233
10
-1577.4996032714855
20
1.8750004768371076
0
LWPOLYLINE
5
101
100
AcDbEntity
8
0
100
AcDbPolyline
90
6
70
1
43
0.0
10
-1281.1256032714857
20
101.87465028919297
42
0.41421356237309503
10
-1331.1256032714857
20
51.874650289192971
10
-1331.1256032714857
20
11.874650289192996
10
-1133.8727491930454
20
11.874650289193038
10
-1133.8727491930454
20
51.874650289192999
42
0.41421356237309598
10
-1183.8727491930454
20
101.87465028919303
0
ENDSEC
0
SECTION
2
OBJECTS
0
DICTIONARY
5
C
100
AcDbDictionary
3
ACAD_GROUP
350
D
3
ACAD_MLINESTYLE
350
17
0
DICTIONARY
5
D
100
AcDbDictionary
0
DICTIONARY
5
1A
330
C
100
AcDbDictionary
0
DICTIONARY
5
17
100
AcDbDictionary
0
ENDSEC
0
EOF
